<?xml version="1.0" encoding="utf-8" standalone="no"?>
<!DOCTYPE svg PUBLIC "-//W3C//DTD SVG 1.1//EN"
  "http://www.w3.org/Graphics/SVG/1.1/DTD/svg11.dtd">
<svg xmlns:xlink="http://www.w3.org/1999/xlink" width="1296pt" height="259.2pt" viewBox="0 0 1296 259.2" xmlns="http://www.w3.org/2000/svg" version="1.1">
 <metadata>
  <rdf:RDF xmlns:dc="http://purl.org/dc/elements/1.1/" xmlns:cc="http://creativecommons.org/ns#" xmlns:rdf="http://www.w3.org/1999/02/22-rdf-syntax-ns#">
   <cc:Work>
    <dc:type rdf:resource="http://purl.org/dc/dcmitype/StillImage"/>
    <dc:date>2022-12-30T21:25:27.942485</dc:date>
    <dc:format>image/svg+xml</dc:format>
    <dc:creator>
     <cc:Agent>
      <dc:title>Matplotlib v3.5.0, https://matplotlib.org/</dc:title>
     </cc:Agent>
    </dc:creator>
   </cc:Work>
  </rdf:RDF>
 </metadata>
 <defs>
  <style type="text/css">*{stroke-linejoin: round; stroke-linecap: butt}</style>
 </defs>
 <g id="figure_1">
  <g id="patch_1">
   <path d="M 0 259.2 
L 1296 259.2 
L 1296 0 
L 0 0 
z
" style="fill: #ffffff"/>
  </g>
  <g id="axes_1">
   <g id="patch_2">
    <path d="M 15.38 243.82 
L 1284.12 243.82 
L 1284.12 11.88 
L 15.38 11.88 
z
" style="fill: #ffffff"/>
   </g>
   <g id="patch_3">
    <path d="M 59.918977 233.277273 
L 166.187415 233.277273 
L 166.187415 218.982049 
L 59.918977 218.982049 
z
" clip-path="url(#pe410f72239)" style="fill: #00bfff; opacity: 0.45"/>
   </g>
   <g id="patch_4">
    <path d="M 190.410367 233.277273 
L 377.708488 233.277273 
L 377.708488 218.982049 
L 190.410367 218.982049 
z
" clip-path="url(#pe410f72239)" style="fill: #00bfff; opacity: 0.45"/>
   </g>
   <g id="patch_5">
    <path d="M 439.906779 233.277273 
L 473.818912 233.277273 
L 473.818912 218.982049 
L 439.906779 218.982049 
z
" clip-path="url(#pe410f72239)" style="fill: #00bfff; opacity: 0.45"/>
   </g>
   <g id="patch_6">
    <path d="M 490.462425 233.277273 
L 501.948793 233.277273 
L 501.948793 218.982049 
L 490.462425 218.982049 
z
" clip-path="url(#pe410f72239)" style="fill: #00bfff; opacity: 0.45"/>
   </g>
   <g id="patch_7">
    <path d="M 568.366566 233.277273 
L 586.807265 233.277273 
L 586.807265 218.982049 
L 568.366566 218.982049 
z
" clip-path="url(#pe410f72239)" style="fill: #00bfff; opacity: 0.45"/>
   </g>
   <g id="patch_8">
    <path d="M 596.496446 233.277273 
L 612.124158 233.277273 
L 612.124158 218.982049 
L 596.496446 218.982049 
z
" clip-path="url(#pe410f72239)" style="fill: #00bfff; opacity: 0.45"/>
   </g>
   <g id="patch_9">
    <path d="M 628.220701 233.277273 
L 645.958153 233.277273 
L 645.958153 218.982049 
L 628.220701 218.982049 
z
" clip-path="url(#pe410f72239)" style="fill: #00bfff; opacity: 0.45"/>
   </g>
   <g id="patch_10">
    <path d="M 698.310986 233.277273 
L 794.421411 233.277273 
L 794.421411 218.982049 
L 698.310986 218.982049 
z
" clip-path="url(#pe410f72239)" style="fill: #00bfff; opacity: 0.45"/>
   </g>
   <g id="patch_11">
    <path d="M 827.786574 233.277273 
L 909.285089 233.277273 
L 909.285089 218.982049 
L 827.786574 218.982049 
z
" clip-path="url(#pe410f72239)" style="fill: #00bfff; opacity: 0.45"/>
   </g>
   <g id="patch_12">
    <path d="M 938.430771 233.277273 
L 1026.492924 233.277273 
L 1026.492924 218.982049 
L 938.430771 218.982049 
z
" clip-path="url(#pe410f72239)" style="fill: #00bfff; opacity: 0.45"/>
   </g>
   <g id="patch_13">
    <path d="M 1069.234715 233.277273 
L 1087.675414 233.277273 
L 1087.675414 218.982049 
L 1069.234715 218.982049 
z
" clip-path="url(#pe410f72239)" style="fill: #00bfff; opacity: 0.45"/>
   </g>
   <g id="patch_14">
    <path d="M 15.38 179.670185 
L 59.684562 179.670185 
L 59.684562 165.374961 
L 15.38 165.374961 
z
" clip-path="url(#pe410f72239)" style="fill: #ee82ee; opacity: 0.45"/>
   </g>
   <g id="patch_15">
    <path d="M 338.873625 179.670185 
L 402.712826 179.670185 
L 402.712826 165.374961 
L 338.873625 165.374961 
z
" clip-path="url(#pe410f72239)" style="fill: #ee82ee; opacity: 0.45"/>
   </g>
   <g id="patch_16">
    <path d="M 439.906779 179.670185 
L 490.228009 179.670185 
L 490.228009 165.374961 
L 439.906779 165.374961 
z
" clip-path="url(#pe410f72239)" style="fill: #ee82ee; opacity: 0.45"/>
   </g>
   <g id="patch_17">
    <path d="M 502.183208 179.670185 
L 551.410499 179.670185 
L 551.410499 165.374961 
L 502.183208 165.374961 
z
" clip-path="url(#pe410f72239)" style="fill: #ee82ee; opacity: 0.45"/>
   </g>
   <g id="patch_18">
    <path d="M 587.11982 179.670185 
L 596.183892 179.670185 
L 596.183892 165.374961 
L 587.11982 165.374961 
z
" clip-path="url(#pe410f72239)" style="fill: #ee82ee; opacity: 0.45"/>
   </g>
   <g id="patch_19">
    <path d="M 612.358573 179.670185 
L 627.986285 179.670185 
L 627.986285 165.374961 
L 612.358573 165.374961 
z
" clip-path="url(#pe410f72239)" style="fill: #ee82ee; opacity: 0.45"/>
   </g>
   <g id="patch_20">
    <path d="M 698.310986 179.670185 
L 774.339802 179.670185 
L 774.339802 165.374961 
L 698.310986 165.374961 
z
" clip-path="url(#pe410f72239)" style="fill: #ee82ee; opacity: 0.45"/>
   </g>
   <g id="patch_21">
    <path d="M 794.655826 179.670185 
L 827.47402 179.670185 
L 827.47402 165.374961 
L 794.655826 165.374961 
z
" clip-path="url(#pe410f72239)" style="fill: #ee82ee; opacity: 0.45"/>
   </g>
   <g id="patch_22">
    <path d="M 909.519505 179.670185 
L 938.196355 179.670185 
L 938.196355 165.374961 
L 909.519505 165.374961 
z
" clip-path="url(#pe410f72239)" style="fill: #ee82ee; opacity: 0.45"/>
   </g>
   <g id="patch_23">
    <path d="M 1041.104834 179.670185 
L 1067.671944 179.670185 
L 1067.671944 165.374961 
L 1041.104834 165.374961 
z
" clip-path="url(#pe410f72239)" style="fill: #ee82ee; opacity: 0.45"/>
   </g>
   <g id="patch_24">
    <path d="M 1160.656826 179.670185 
L 1174.721766 179.670185 
L 1174.721766 165.374961 
L 1160.656826 165.374961 
z
" clip-path="url(#pe410f72239)" style="fill: #ee82ee; opacity: 0.45"/>
   </g>
   <g id="patch_25">
    <path d="M 166.42183 126.063097 
L 190.175951 126.063097 
L 190.175951 111.767874 
L 166.42183 111.767874 
z
" clip-path="url(#pe410f72239)" style="fill: #32cd32; opacity: 0.45"/>
   </g>
   <g id="patch_26">
    <path d="M 220.884404 126.063097 
L 291.756075 126.063097 
L 291.756075 111.767874 
L 220.884404 111.767874 
z
" clip-path="url(#pe410f72239)" style="fill: #32cd32; opacity: 0.45"/>
   </g>
   <g id="patch_27">
    <path d="M 338.873625 126.063097 
L 377.708488 126.063097 
L 377.708488 111.767874 
L 338.873625 111.767874 
z
" clip-path="url(#pe410f72239)" style="fill: #32cd32; opacity: 0.45"/>
   </g>
   <g id="patch_28">
    <path d="M 402.947241 126.063097 
L 424.044652 126.063097 
L 424.044652 111.767874 
L 402.947241 111.767874 
z
" clip-path="url(#pe410f72239)" style="fill: #32cd32; opacity: 0.45"/>
   </g>
   <g id="patch_29">
    <path d="M 439.906779 126.063097 
L 473.818912 126.063097 
L 473.818912 111.767874 
L 439.906779 111.767874 
z
" clip-path="url(#pe410f72239)" style="fill: #32cd32; opacity: 0.45"/>
   </g>
   <g id="patch_30">
    <path d="M 646.192569 126.063097 
L 661.82028 126.063097 
L 661.82028 111.767874 
L 646.192569 111.767874 
z
" clip-path="url(#pe410f72239)" style="fill: #32cd32; opacity: 0.45"/>
   </g>
   <g id="patch_31">
    <path d="M 698.310986 126.063097 
L 758.243259 126.063097 
L 758.243259 111.767874 
L 698.310986 111.767874 
z
" clip-path="url(#pe410f72239)" style="fill: #32cd32; opacity: 0.45"/>
   </g>
   <g id="patch_32">
    <path d="M 338.873625 72.456009 
L 377.708488 72.456009 
L 377.708488 58.160786 
L 338.873625 58.160786 
z
" clip-path="url(#pe410f72239)" style="fill: #ff6347; opacity: 0.45"/>
   </g>
   <g id="patch_33">
    <path d="M 424.279067 72.456009 
L 473.818912 72.456009 
L 473.818912 58.160786 
L 424.279067 58.160786 
z
" clip-path="url(#pe410f72239)" style="fill: #ff6347; opacity: 0.45"/>
   </g>
   <g id="patch_34">
    <path d="M 551.644915 72.456009 
L 568.054012 72.456009 
L 568.054012 58.160786 
L 551.644915 58.160786 
z
" clip-path="url(#pe410f72239)" style="fill: #ff6347; opacity: 0.45"/>
   </g>
   <g id="patch_35">
    <path d="M 662.132834 72.456009 
L 774.339802 72.456009 
L 774.339802 58.160786 
L 662.132834 58.160786 
z
" clip-path="url(#pe410f72239)" style="fill: #ff6347; opacity: 0.45"/>
   </g>
   <g id="patch_36">
    <path d="M 1026.72734 72.456009 
L 1040.79228 72.456009 
L 1040.79228 58.160786 
L 1026.72734 58.160786 
z
" clip-path="url(#pe410f72239)" style="fill: #ff6347; opacity: 0.45"/>
   </g>
   <g id="patch_37">
    <path d="M 60.028698 215.408243 
L 166.598947 215.408243 
L 166.598947 201.11302 
L 60.028698 201.11302 
z
" clip-path="url(#pe410f72239)" style="fill: #00bfff; opacity: 0.65"/>
   </g>
   <g id="patch_38">
    <path d="M 190.715762 215.408243 
L 237.319877 215.408243 
L 237.319877 201.11302 
L 190.715762 201.11302 
z
" clip-path="url(#pe410f72239)" style="fill: #00bfff; opacity: 0.65"/>
   </g>
   <g id="patch_39">
    <path d="M 237.971683 215.408243 
L 339.001582 215.408243 
L 339.001582 201.11302 
L 237.971683 201.11302 
z
" clip-path="url(#pe410f72239)" style="fill: #00bfff; opacity: 0.65"/>
   </g>
   <g id="patch_40">
    <path d="M 568.437226 215.408243 
L 587.339594 215.408243 
L 587.339594 201.11302 
L 568.437226 201.11302 
z
" clip-path="url(#pe410f72239)" style="fill: #00bfff; opacity: 0.65"/>
   </g>
   <g id="patch_41">
    <path d="M 596.790778 215.408243 
L 612.108215 215.408243 
L 612.108215 201.11302 
L 596.790778 201.11302 
z
" clip-path="url(#pe410f72239)" style="fill: #00bfff; opacity: 0.65"/>
   </g>
   <g id="patch_42">
    <path d="M 614.063632 215.408243 
L 614.389535 215.408243 
L 614.389535 201.11302 
L 614.063632 201.11302 
z
" clip-path="url(#pe410f72239)" style="fill: #00bfff; opacity: 0.65"/>
   </g>
   <g id="patch_43">
    <path d="M 628.077457 215.408243 
L 646.32802 215.408243 
L 646.32802 201.11302 
L 628.077457 201.11302 
z
" clip-path="url(#pe410f72239)" style="fill: #00bfff; opacity: 0.65"/>
   </g>
   <g id="patch_44">
    <path d="M 774.733763 215.408243 
L 794.939743 215.408243 
L 794.939743 201.11302 
L 774.733763 201.11302 
z
" clip-path="url(#pe410f72239)" style="fill: #00bfff; opacity: 0.65"/>
   </g>
   <g id="patch_45">
    <path d="M 827.530033 215.408243 
L 909.331662 215.408243 
L 909.331662 201.11302 
L 827.530033 201.11302 
z
" clip-path="url(#pe410f72239)" style="fill: #00bfff; opacity: 0.65"/>
   </g>
   <g id="patch_46">
    <path d="M 911.938885 215.408243 
L 912.264788 215.408243 
L 912.264788 201.11302 
L 911.938885 201.11302 
z
" clip-path="url(#pe410f72239)" style="fill: #00bfff; opacity: 0.65"/>
   </g>
   <g id="patch_47">
    <path d="M 938.662923 215.408243 
L 963.757447 215.408243 
L 963.757447 201.11302 
L 938.662923 201.11302 
z
" clip-path="url(#pe410f72239)" style="fill: #00bfff; opacity: 0.65"/>
   </g>
   <g id="patch_48">
    <path d="M 1069.67589 215.408243 
L 1088.252356 215.408243 
L 1088.252356 201.11302 
L 1069.67589 201.11302 
z
" clip-path="url(#pe410f72239)" style="fill: #00bfff; opacity: 0.65"/>
   </g>
   <g id="patch_49">
    <path d="M 15.38 161.801156 
L 60.028698 161.801156 
L 60.028698 147.505932 
L 15.38 147.505932 
z
" clip-path="url(#pe410f72239)" style="fill: #ee82ee; opacity: 0.65"/>
   </g>
   <g id="patch_50">
    <path d="M 377.784028 161.801156 
L 403.204454 161.801156 
L 403.204454 147.505932 
L 377.784028 147.505932 
z
" clip-path="url(#pe410f72239)" style="fill: #ee82ee; opacity: 0.65"/>
   </g>
   <g id="patch_51">
    <path d="M 444.26822 161.801156 
L 490.546432 161.801156 
L 490.546432 147.505932 
L 444.26822 147.505932 
z
" clip-path="url(#pe410f72239)" style="fill: #ee82ee; opacity: 0.65"/>
   </g>
   <g id="patch_52">
    <path d="M 501.953034 161.801156 
L 551.816178 161.801156 
L 551.816178 147.505932 
L 501.953034 147.505932 
z
" clip-path="url(#pe410f72239)" style="fill: #ee82ee; opacity: 0.65"/>
   </g>
   <g id="patch_53">
    <path d="M 587.339594 161.801156 
L 596.790778 161.801156 
L 596.790778 147.505932 
L 587.339594 147.505932 
z
" clip-path="url(#pe410f72239)" style="fill: #ee82ee; opacity: 0.65"/>
   </g>
   <g id="patch_54">
    <path d="M 612.108215 161.801156 
L 614.063632 161.801156 
L 614.063632 147.505932 
L 612.108215 147.505932 
z
" clip-path="url(#pe410f72239)" style="fill: #ee82ee; opacity: 0.65"/>
   </g>
   <g id="patch_55">
    <path d="M 614.389535 161.801156 
L 628.077457 161.801156 
L 628.077457 147.505932 
L 614.389535 147.505932 
z
" clip-path="url(#pe410f72239)" style="fill: #ee82ee; opacity: 0.65"/>
   </g>
   <g id="patch_56">
    <path d="M 698.472484 161.801156 
L 774.733763 161.801156 
L 774.733763 147.505932 
L 698.472484 147.505932 
z
" clip-path="url(#pe410f72239)" style="fill: #ee82ee; opacity: 0.65"/>
   </g>
   <g id="patch_57">
    <path d="M 794.61384 161.801156 
L 827.855936 161.801156 
L 827.855936 147.505932 
L 794.61384 147.505932 
z
" clip-path="url(#pe410f72239)" style="fill: #ee82ee; opacity: 0.65"/>
   </g>
   <g id="patch_58">
    <path d="M 909.331662 161.801156 
L 911.938885 161.801156 
L 911.938885 147.505932 
L 909.331662 147.505932 
z
" clip-path="url(#pe410f72239)" style="fill: #ee82ee; opacity: 0.65"/>
   </g>
   <g id="patch_59">
    <path d="M 912.264788 161.801156 
L 938.662923 161.801156 
L 938.662923 147.505932 
L 912.264788 147.505932 
z
" clip-path="url(#pe410f72239)" style="fill: #ee82ee; opacity: 0.65"/>
   </g>
   <g id="patch_60">
    <path d="M 1041.322338 161.801156 
L 1067.068667 161.801156 
L 1067.068667 147.505932 
L 1041.322338 147.505932 
z
" clip-path="url(#pe410f72239)" style="fill: #ee82ee; opacity: 0.65"/>
   </g>
   <g id="patch_61">
    <path d="M 1160.6028 161.801156 
L 1160.928703 161.801156 
L 1160.928703 147.505932 
L 1160.6028 147.505932 
z
" clip-path="url(#pe410f72239)" style="fill: #ee82ee; opacity: 0.65"/>
   </g>
   <g id="patch_62">
    <path d="M 1161.254606 161.801156 
L 1175.268431 161.801156 
L 1175.268431 147.505932 
L 1161.254606 147.505932 
z
" clip-path="url(#pe410f72239)" style="fill: #ee82ee; opacity: 0.65"/>
   </g>
   <g id="patch_63">
    <path d="M 1190.91177 161.801156 
L 1202.318371 161.801156 
L 1202.318371 147.505932 
L 1190.91177 147.505932 
z
" clip-path="url(#pe410f72239)" style="fill: #ee82ee; opacity: 0.65"/>
   </g>
   <g id="patch_64">
    <path d="M 166.273044 108.194068 
L 190.715762 108.194068 
L 190.715762 93.898844 
L 166.273044 93.898844 
z
" clip-path="url(#pe410f72239)" style="fill: #32cd32; opacity: 0.65"/>
   </g>
   <g id="patch_65">
    <path d="M 220.698829 108.194068 
L 292.071564 108.194068 
L 292.071564 93.898844 
L 220.698829 93.898844 
z
" clip-path="url(#pe410f72239)" style="fill: #32cd32; opacity: 0.65"/>
   </g>
   <g id="patch_66">
    <path d="M 339.001582 108.194068 
L 378.109931 108.194068 
L 378.109931 93.898844 
L 339.001582 93.898844 
z
" clip-path="url(#pe410f72239)" style="fill: #32cd32; opacity: 0.65"/>
   </g>
   <g id="patch_67">
    <path d="M 402.878551 108.194068 
L 421.455017 108.194068 
L 421.455017 93.898844 
L 402.878551 93.898844 
z
" clip-path="url(#pe410f72239)" style="fill: #32cd32; opacity: 0.65"/>
   </g>
   <g id="patch_68">
    <path d="M 421.78092 108.194068 
L 422.106823 108.194068 
L 422.106823 93.898844 
L 421.78092 93.898844 
z
" clip-path="url(#pe410f72239)" style="fill: #32cd32; opacity: 0.65"/>
   </g>
   <g id="patch_69">
    <path d="M 422.432725 108.194068 
L 422.758628 108.194068 
L 422.758628 93.898844 
L 422.432725 93.898844 
z
" clip-path="url(#pe410f72239)" style="fill: #32cd32; opacity: 0.65"/>
   </g>
   <g id="patch_70">
    <path d="M 440.031482 108.194068 
L 473.925384 108.194068 
L 473.925384 93.898844 
L 440.031482 93.898844 
z
" clip-path="url(#pe410f72239)" style="fill: #32cd32; opacity: 0.65"/>
   </g>
   <g id="patch_71">
    <path d="M 646.32802 108.194068 
L 662.297262 108.194068 
L 662.297262 93.898844 
L 646.32802 93.898844 
z
" clip-path="url(#pe410f72239)" style="fill: #32cd32; opacity: 0.65"/>
   </g>
   <g id="patch_72">
    <path d="M 698.472484 108.194068 
L 732.040483 108.194068 
L 732.040483 93.898844 
L 698.472484 93.898844 
z
" clip-path="url(#pe410f72239)" style="fill: #32cd32; opacity: 0.65"/>
   </g>
   <g id="patch_73">
    <path d="M 1214.050876 108.194068 
L 1216.332196 108.194068 
L 1216.332196 93.898844 
L 1214.050876 93.898844 
z
" clip-path="url(#pe410f72239)" style="fill: #32cd32; opacity: 0.65"/>
   </g>
   <g id="patch_74">
    <path d="M 339.001582 54.58698 
L 377.784028 54.58698 
L 377.784028 40.291757 
L 339.001582 40.291757 
z
" clip-path="url(#pe410f72239)" style="fill: #ff6347; opacity: 0.65"/>
   </g>
   <g id="patch_75">
    <path d="M 424.06224 54.58698 
L 440.031482 54.58698 
L 440.031482 40.291757 
L 424.06224 40.291757 
z
" clip-path="url(#pe410f72239)" style="fill: #ff6347; opacity: 0.65"/>
   </g>
   <g id="patch_76">
    <path d="M 551.816178 54.58698 
L 568.437226 54.58698 
L 568.437226 40.291757 
L 551.816178 40.291757 
z
" clip-path="url(#pe410f72239)" style="fill: #ff6347; opacity: 0.65"/>
   </g>
   <g id="patch_77">
    <path d="M 662.297262 54.58698 
L 678.91831 54.58698 
L 678.91831 40.291757 
L 662.297262 40.291757 
z
" clip-path="url(#pe410f72239)" style="fill: #ff6347; opacity: 0.65"/>
   </g>
   <g id="patch_78">
    <path d="M 681.525533 54.58698 
L 757.135006 54.58698 
L 757.135006 40.291757 
L 681.525533 40.291757 
z
" clip-path="url(#pe410f72239)" style="fill: #ff6347; opacity: 0.65"/>
   </g>
   <g id="patch_79">
    <path d="M 757.460909 54.58698 
L 774.40786 54.58698 
L 774.40786 40.291757 
L 757.460909 40.291757 
z
" clip-path="url(#pe410f72239)" style="fill: #ff6347; opacity: 0.65"/>
   </g>
   <g id="patch_80">
    <path d="M 1026.656707 54.58698 
L 1041.322338 54.58698 
L 1041.322338 40.291757 
L 1026.656707 40.291757 
z
" clip-path="url(#pe410f72239)" style="fill: #ff6347; opacity: 0.65"/>
   </g>
   <g id="patch_81">
    <path d="M 60.354601 197.539214 
L 61.332309 197.539214 
L 61.332309 183.243991 
L 60.354601 183.243991 
z
" clip-path="url(#pe410f72239)" style="fill: #00bfff; opacity: 0.85"/>
   </g>
   <g id="patch_82">
    <path d="M 72.413008 197.539214 
L 72.738911 197.539214 
L 72.738911 183.243991 
L 72.413008 183.243991 
z
" clip-path="url(#pe410f72239)" style="fill: #00bfff; opacity: 0.85"/>
   </g>
   <g id="patch_83">
    <path d="M 76.975649 197.539214 
L 77.301552 197.539214 
L 77.301552 183.243991 
L 76.975649 183.243991 
z
" clip-path="url(#pe410f72239)" style="fill: #00bfff; opacity: 0.85"/>
   </g>
   <g id="patch_84">
    <path d="M 77.953357 197.539214 
L 78.27926 197.539214 
L 78.27926 183.243991 
L 77.953357 183.243991 
z
" clip-path="url(#pe410f72239)" style="fill: #00bfff; opacity: 0.85"/>
   </g>
   <g id="patch_85">
    <path d="M 78.605163 197.539214 
L 79.256969 197.539214 
L 79.256969 183.243991 
L 78.605163 183.243991 
z
" clip-path="url(#pe410f72239)" style="fill: #00bfff; opacity: 0.85"/>
   </g>
   <g id="patch_86">
    <path d="M 79.582872 197.539214 
L 81.538289 197.539214 
L 81.538289 183.243991 
L 79.582872 183.243991 
z
" clip-path="url(#pe410f72239)" style="fill: #00bfff; opacity: 0.85"/>
   </g>
   <g id="patch_87">
    <path d="M 82.841901 197.539214 
L 84.145512 197.539214 
L 84.145512 183.243991 
L 82.841901 183.243991 
z
" clip-path="url(#pe410f72239)" style="fill: #00bfff; opacity: 0.85"/>
   </g>
   <g id="patch_88">
    <path d="M 85.123221 197.539214 
L 85.775027 197.539214 
L 85.775027 183.243991 
L 85.123221 183.243991 
z
" clip-path="url(#pe410f72239)" style="fill: #00bfff; opacity: 0.85"/>
   </g>
   <g id="patch_89">
    <path d="M 86.426833 197.539214 
L 86.752736 197.539214 
L 86.752736 183.243991 
L 86.426833 183.243991 
z
" clip-path="url(#pe410f72239)" style="fill: #00bfff; opacity: 0.85"/>
   </g>
   <g id="patch_90">
    <path d="M 88.38225 197.539214 
L 88.708153 197.539214 
L 88.708153 183.243991 
L 88.38225 183.243991 
z
" clip-path="url(#pe410f72239)" style="fill: #00bfff; opacity: 0.85"/>
   </g>
   <g id="patch_91">
    <path d="M 97.833434 197.539214 
L 98.159337 197.539214 
L 98.159337 183.243991 
L 97.833434 183.243991 
z
" clip-path="url(#pe410f72239)" style="fill: #00bfff; opacity: 0.85"/>
   </g>
   <g id="patch_92">
    <path d="M 98.811143 197.539214 
L 99.137046 197.539214 
L 99.137046 183.243991 
L 98.811143 183.243991 
z
" clip-path="url(#pe410f72239)" style="fill: #00bfff; opacity: 0.85"/>
   </g>
   <g id="patch_93">
    <path d="M 102.070172 197.539214 
L 102.396075 197.539214 
L 102.396075 183.243991 
L 102.070172 183.243991 
z
" clip-path="url(#pe410f72239)" style="fill: #00bfff; opacity: 0.85"/>
   </g>
   <g id="patch_94">
    <path d="M 104.02559 197.539214 
L 105.003298 197.539214 
L 105.003298 183.243991 
L 104.02559 183.243991 
z
" clip-path="url(#pe410f72239)" style="fill: #00bfff; opacity: 0.85"/>
   </g>
   <g id="patch_95">
    <path d="M 105.329201 197.539214 
L 105.655104 197.539214 
L 105.655104 183.243991 
L 105.329201 183.243991 
z
" clip-path="url(#pe410f72239)" style="fill: #00bfff; opacity: 0.85"/>
   </g>
   <g id="patch_96">
    <path d="M 105.981007 197.539214 
L 106.30691 197.539214 
L 106.30691 183.243991 
L 105.981007 183.243991 
z
" clip-path="url(#pe410f72239)" style="fill: #00bfff; opacity: 0.85"/>
   </g>
   <g id="patch_97">
    <path d="M 107.284619 197.539214 
L 109.240036 197.539214 
L 109.240036 183.243991 
L 107.284619 183.243991 
z
" clip-path="url(#pe410f72239)" style="fill: #00bfff; opacity: 0.85"/>
   </g>
   <g id="patch_98">
    <path d="M 109.565939 197.539214 
L 109.891842 197.539214 
L 109.891842 183.243991 
L 109.565939 183.243991 
z
" clip-path="url(#pe410f72239)" style="fill: #00bfff; opacity: 0.85"/>
   </g>
   <g id="patch_99">
    <path d="M 110.217745 197.539214 
L 111.195453 197.539214 
L 111.195453 183.243991 
L 110.217745 183.243991 
z
" clip-path="url(#pe410f72239)" style="fill: #00bfff; opacity: 0.85"/>
   </g>
   <g id="patch_100">
    <path d="M 111.521356 197.539214 
L 111.847259 197.539214 
L 111.847259 183.243991 
L 111.521356 183.243991 
z
" clip-path="url(#pe410f72239)" style="fill: #00bfff; opacity: 0.85"/>
   </g>
   <g id="patch_101">
    <path d="M 112.173162 197.539214 
L 112.824968 197.539214 
L 112.824968 183.243991 
L 112.173162 183.243991 
z
" clip-path="url(#pe410f72239)" style="fill: #00bfff; opacity: 0.85"/>
   </g>
   <g id="patch_102">
    <path d="M 113.150871 197.539214 
L 114.780385 197.539214 
L 114.780385 183.243991 
L 113.150871 183.243991 
z
" clip-path="url(#pe410f72239)" style="fill: #00bfff; opacity: 0.85"/>
   </g>
   <g id="patch_103">
    <path d="M 115.106288 197.539214 
L 115.432191 197.539214 
L 115.432191 183.243991 
L 115.106288 183.243991 
z
" clip-path="url(#pe410f72239)" style="fill: #00bfff; opacity: 0.85"/>
   </g>
   <g id="patch_104">
    <path d="M 115.758094 197.539214 
L 116.4099 197.539214 
L 116.4099 183.243991 
L 115.758094 183.243991 
z
" clip-path="url(#pe410f72239)" style="fill: #00bfff; opacity: 0.85"/>
   </g>
   <g id="patch_105">
    <path d="M 116.735803 197.539214 
L 133.030948 197.539214 
L 133.030948 183.243991 
L 116.735803 183.243991 
z
" clip-path="url(#pe410f72239)" style="fill: #00bfff; opacity: 0.85"/>
   </g>
   <g id="patch_106">
    <path d="M 133.356851 197.539214 
L 135.312268 197.539214 
L 135.312268 183.243991 
L 133.356851 183.243991 
z
" clip-path="url(#pe410f72239)" style="fill: #00bfff; opacity: 0.85"/>
   </g>
   <g id="patch_107">
    <path d="M 135.638171 197.539214 
L 144.111647 197.539214 
L 144.111647 183.243991 
L 135.638171 183.243991 
z
" clip-path="url(#pe410f72239)" style="fill: #00bfff; opacity: 0.85"/>
   </g>
   <g id="patch_108">
    <path d="M 144.437549 197.539214 
L 145.415258 197.539214 
L 145.415258 183.243991 
L 144.437549 183.243991 
z
" clip-path="url(#pe410f72239)" style="fill: #00bfff; opacity: 0.85"/>
   </g>
   <g id="patch_109">
    <path d="M 146.067064 197.539214 
L 146.392967 197.539214 
L 146.392967 183.243991 
L 146.067064 183.243991 
z
" clip-path="url(#pe410f72239)" style="fill: #00bfff; opacity: 0.85"/>
   </g>
   <g id="patch_110">
    <path d="M 146.71887 197.539214 
L 147.044773 197.539214 
L 147.044773 183.243991 
L 146.71887 183.243991 
z
" clip-path="url(#pe410f72239)" style="fill: #00bfff; opacity: 0.85"/>
   </g>
   <g id="patch_111">
    <path d="M 147.370676 197.539214 
L 148.348384 197.539214 
L 148.348384 183.243991 
L 147.370676 183.243991 
z
" clip-path="url(#pe410f72239)" style="fill: #00bfff; opacity: 0.85"/>
   </g>
   <g id="patch_112">
    <path d="M 149.00019 197.539214 
L 161.058597 197.539214 
L 161.058597 183.243991 
L 149.00019 183.243991 
z
" clip-path="url(#pe410f72239)" style="fill: #00bfff; opacity: 0.85"/>
   </g>
   <g id="patch_113">
    <path d="M 161.3845 197.539214 
L 163.665821 197.539214 
L 163.665821 183.243991 
L 161.3845 183.243991 
z
" clip-path="url(#pe410f72239)" style="fill: #00bfff; opacity: 0.85"/>
   </g>
   <g id="patch_114">
    <path d="M 164.643529 197.539214 
L 164.969432 197.539214 
L 164.969432 183.243991 
L 164.643529 183.243991 
z
" clip-path="url(#pe410f72239)" style="fill: #00bfff; opacity: 0.85"/>
   </g>
   <g id="patch_115">
    <path d="M 190.389859 197.539214 
L 191.367567 197.539214 
L 191.367567 183.243991 
L 190.389859 183.243991 
z
" clip-path="url(#pe410f72239)" style="fill: #00bfff; opacity: 0.85"/>
   </g>
   <g id="patch_116">
    <path d="M 192.671179 197.539214 
L 192.997082 197.539214 
L 192.997082 183.243991 
L 192.671179 183.243991 
z
" clip-path="url(#pe410f72239)" style="fill: #00bfff; opacity: 0.85"/>
   </g>
   <g id="patch_117">
    <path d="M 193.322985 197.539214 
L 193.974791 197.539214 
L 193.974791 183.243991 
L 193.322985 183.243991 
z
" clip-path="url(#pe410f72239)" style="fill: #00bfff; opacity: 0.85"/>
   </g>
   <g id="patch_118">
    <path d="M 200.818752 197.539214 
L 201.470557 197.539214 
L 201.470557 183.243991 
L 200.818752 183.243991 
z
" clip-path="url(#pe410f72239)" style="fill: #00bfff; opacity: 0.85"/>
   </g>
   <g id="patch_119">
    <path d="M 201.79646 197.539214 
L 210.921742 197.539214 
L 210.921742 183.243991 
L 201.79646 183.243991 
z
" clip-path="url(#pe410f72239)" style="fill: #00bfff; opacity: 0.85"/>
   </g>
   <g id="patch_120">
    <path d="M 217.765703 197.539214 
L 218.091605 197.539214 
L 218.091605 183.243991 
L 217.765703 183.243991 
z
" clip-path="url(#pe410f72239)" style="fill: #00bfff; opacity: 0.85"/>
   </g>
   <g id="patch_121">
    <path d="M 233.083139 197.539214 
L 233.409042 197.539214 
L 233.409042 183.243991 
L 233.083139 183.243991 
z
" clip-path="url(#pe410f72239)" style="fill: #00bfff; opacity: 0.85"/>
   </g>
   <g id="patch_122">
    <path d="M 234.712653 197.539214 
L 235.038556 197.539214 
L 235.038556 183.243991 
L 234.712653 183.243991 
z
" clip-path="url(#pe410f72239)" style="fill: #00bfff; opacity: 0.85"/>
   </g>
   <g id="patch_123">
    <path d="M 270.887876 197.539214 
L 271.539681 197.539214 
L 271.539681 183.243991 
L 270.887876 183.243991 
z
" clip-path="url(#pe410f72239)" style="fill: #00bfff; opacity: 0.85"/>
   </g>
   <g id="patch_124">
    <path d="M 271.865584 197.539214 
L 272.191487 197.539214 
L 272.191487 183.243991 
L 271.865584 183.243991 
z
" clip-path="url(#pe410f72239)" style="fill: #00bfff; opacity: 0.85"/>
   </g>
   <g id="patch_125">
    <path d="M 274.472808 197.539214 
L 275.124613 197.539214 
L 275.124613 183.243991 
L 274.472808 183.243991 
z
" clip-path="url(#pe410f72239)" style="fill: #00bfff; opacity: 0.85"/>
   </g>
   <g id="patch_126">
    <path d="M 275.776419 197.539214 
L 282.62038 197.539214 
L 282.62038 183.243991 
L 275.776419 183.243991 
z
" clip-path="url(#pe410f72239)" style="fill: #00bfff; opacity: 0.85"/>
   </g>
   <g id="patch_127">
    <path d="M 291.745661 197.539214 
L 299.241428 197.539214 
L 299.241428 183.243991 
L 291.745661 183.243991 
z
" clip-path="url(#pe410f72239)" style="fill: #00bfff; opacity: 0.85"/>
   </g>
   <g id="patch_128">
    <path d="M 300.219137 197.539214 
L 300.54504 197.539214 
L 300.54504 183.243991 
L 300.219137 183.243991 
z
" clip-path="url(#pe410f72239)" style="fill: #00bfff; opacity: 0.85"/>
   </g>
   <g id="patch_129">
    <path d="M 300.870943 197.539214 
L 301.522749 197.539214 
L 301.522749 183.243991 
L 300.870943 183.243991 
z
" clip-path="url(#pe410f72239)" style="fill: #00bfff; opacity: 0.85"/>
   </g>
   <g id="patch_130">
    <path d="M 301.848651 197.539214 
L 302.174554 197.539214 
L 302.174554 183.243991 
L 301.848651 183.243991 
z
" clip-path="url(#pe410f72239)" style="fill: #00bfff; opacity: 0.85"/>
   </g>
   <g id="patch_131">
    <path d="M 302.500457 197.539214 
L 305.433583 197.539214 
L 305.433583 183.243991 
L 302.500457 183.243991 
z
" clip-path="url(#pe410f72239)" style="fill: #00bfff; opacity: 0.85"/>
   </g>
   <g id="patch_132">
    <path d="M 305.759486 197.539214 
L 307.063098 197.539214 
L 307.063098 183.243991 
L 305.759486 183.243991 
z
" clip-path="url(#pe410f72239)" style="fill: #00bfff; opacity: 0.85"/>
   </g>
   <g id="patch_133">
    <path d="M 307.714904 197.539214 
L 308.040807 197.539214 
L 308.040807 183.243991 
L 307.714904 183.243991 
z
" clip-path="url(#pe410f72239)" style="fill: #00bfff; opacity: 0.85"/>
   </g>
   <g id="patch_134">
    <path d="M 312.603447 197.539214 
L 313.255253 197.539214 
L 313.255253 183.243991 
L 312.603447 183.243991 
z
" clip-path="url(#pe410f72239)" style="fill: #00bfff; opacity: 0.85"/>
   </g>
   <g id="patch_135">
    <path d="M 313.581156 197.539214 
L 314.232962 197.539214 
L 314.232962 183.243991 
L 313.581156 183.243991 
z
" clip-path="url(#pe410f72239)" style="fill: #00bfff; opacity: 0.85"/>
   </g>
   <g id="patch_136">
    <path d="M 318.469699 197.539214 
L 319.447408 197.539214 
L 319.447408 183.243991 
L 318.469699 183.243991 
z
" clip-path="url(#pe410f72239)" style="fill: #00bfff; opacity: 0.85"/>
   </g>
   <g id="patch_137">
    <path d="M 319.773311 197.539214 
L 320.099214 197.539214 
L 320.099214 183.243991 
L 319.773311 183.243991 
z
" clip-path="url(#pe410f72239)" style="fill: #00bfff; opacity: 0.85"/>
   </g>
   <g id="patch_138">
    <path d="M 320.75102 197.539214 
L 322.706437 197.539214 
L 322.706437 183.243991 
L 320.75102 183.243991 
z
" clip-path="url(#pe410f72239)" style="fill: #00bfff; opacity: 0.85"/>
   </g>
   <g id="patch_139">
    <path d="M 324.010049 197.539214 
L 324.335952 197.539214 
L 324.335952 183.243991 
L 324.010049 183.243991 
z
" clip-path="url(#pe410f72239)" style="fill: #00bfff; opacity: 0.85"/>
   </g>
   <g id="patch_140">
    <path d="M 324.987758 197.539214 
L 325.965466 197.539214 
L 325.965466 183.243991 
L 324.987758 183.243991 
z
" clip-path="url(#pe410f72239)" style="fill: #00bfff; opacity: 0.85"/>
   </g>
   <g id="patch_141">
    <path d="M 330.528107 197.539214 
L 331.831718 197.539214 
L 331.831718 183.243991 
L 330.528107 183.243991 
z
" clip-path="url(#pe410f72239)" style="fill: #00bfff; opacity: 0.85"/>
   </g>
   <g id="patch_142">
    <path d="M 332.483524 197.539214 
L 332.809427 197.539214 
L 332.809427 183.243991 
L 332.483524 183.243991 
z
" clip-path="url(#pe410f72239)" style="fill: #00bfff; opacity: 0.85"/>
   </g>
   <g id="patch_143">
    <path d="M 333.461233 197.539214 
L 333.787136 197.539214 
L 333.787136 183.243991 
L 333.461233 183.243991 
z
" clip-path="url(#pe410f72239)" style="fill: #00bfff; opacity: 0.85"/>
   </g>
   <g id="patch_144">
    <path d="M 568.111323 197.539214 
L 581.147439 197.539214 
L 581.147439 183.243991 
L 568.111323 183.243991 
z
" clip-path="url(#pe410f72239)" style="fill: #00bfff; opacity: 0.85"/>
   </g>
   <g id="patch_145">
    <path d="M 581.473342 197.539214 
L 587.013691 197.539214 
L 587.013691 183.243991 
L 581.473342 183.243991 
z
" clip-path="url(#pe410f72239)" style="fill: #00bfff; opacity: 0.85"/>
   </g>
   <g id="patch_146">
    <path d="M 596.464875 197.539214 
L 612.108215 197.539214 
L 612.108215 183.243991 
L 596.464875 183.243991 
z
" clip-path="url(#pe410f72239)" style="fill: #00bfff; opacity: 0.85"/>
   </g>
   <g id="patch_147">
    <path d="M 628.077457 197.539214 
L 632.314195 197.539214 
L 632.314195 183.243991 
L 628.077457 183.243991 
z
" clip-path="url(#pe410f72239)" style="fill: #00bfff; opacity: 0.85"/>
   </g>
   <g id="patch_148">
    <path d="M 635.573224 197.539214 
L 646.002117 197.539214 
L 646.002117 183.243991 
L 635.573224 183.243991 
z
" clip-path="url(#pe410f72239)" style="fill: #00bfff; opacity: 0.85"/>
   </g>
   <g id="patch_149">
    <path d="M 779.296404 197.539214 
L 794.61384 197.539214 
L 794.61384 183.243991 
L 779.296404 183.243991 
z
" clip-path="url(#pe410f72239)" style="fill: #00bfff; opacity: 0.85"/>
   </g>
   <g id="patch_150">
    <path d="M 827.530033 197.539214 
L 909.331662 197.539214 
L 909.331662 183.243991 
L 827.530033 183.243991 
z
" clip-path="url(#pe410f72239)" style="fill: #00bfff; opacity: 0.85"/>
   </g>
   <g id="patch_151">
    <path d="M 938.33702 197.539214 
L 963.431544 197.539214 
L 963.431544 183.243991 
L 938.33702 183.243991 
z
" clip-path="url(#pe410f72239)" style="fill: #00bfff; opacity: 0.85"/>
   </g>
   <g id="patch_152">
    <path d="M 1082.712006 197.539214 
L 1083.037909 197.539214 
L 1083.037909 183.243991 
L 1082.712006 183.243991 
z
" clip-path="url(#pe410f72239)" style="fill: #00bfff; opacity: 0.85"/>
   </g>
   <g id="patch_153">
    <path d="M 1083.689715 197.539214 
L 1084.015618 197.539214 
L 1084.015618 183.243991 
L 1083.689715 183.243991 
z
" clip-path="url(#pe410f72239)" style="fill: #00bfff; opacity: 0.85"/>
   </g>
   <g id="patch_154">
    <path d="M 1084.667424 197.539214 
L 1084.993326 197.539214 
L 1084.993326 183.243991 
L 1084.667424 183.243991 
z
" clip-path="url(#pe410f72239)" style="fill: #00bfff; opacity: 0.85"/>
   </g>
   <g id="patch_155">
    <path d="M 15.38 143.932126 
L 59.702795 143.932126 
L 59.702795 129.636903 
L 15.38 129.636903 
z
" clip-path="url(#pe410f72239)" style="fill: #ee82ee; opacity: 0.85"/>
   </g>
   <g id="patch_156">
    <path d="M 377.784028 143.932126 
L 402.878551 143.932126 
L 402.878551 129.636903 
L 377.784028 129.636903 
z
" clip-path="url(#pe410f72239)" style="fill: #ee82ee; opacity: 0.85"/>
   </g>
   <g id="patch_157">
    <path d="M 473.925384 143.932126 
L 490.220529 143.932126 
L 490.220529 129.636903 
L 473.925384 129.636903 
z
" clip-path="url(#pe410f72239)" style="fill: #ee82ee; opacity: 0.85"/>
   </g>
   <g id="patch_158">
    <path d="M 501.953034 143.932126 
L 551.490275 143.932126 
L 551.490275 129.636903 
L 501.953034 129.636903 
z
" clip-path="url(#pe410f72239)" style="fill: #ee82ee; opacity: 0.85"/>
   </g>
   <g id="patch_159">
    <path d="M 587.013691 143.932126 
L 596.464875 143.932126 
L 596.464875 129.636903 
L 587.013691 129.636903 
z
" clip-path="url(#pe410f72239)" style="fill: #ee82ee; opacity: 0.85"/>
   </g>
   <g id="patch_160">
    <path d="M 612.108215 143.932126 
L 628.077457 143.932126 
L 628.077457 129.636903 
L 612.108215 129.636903 
z
" clip-path="url(#pe410f72239)" style="fill: #ee82ee; opacity: 0.85"/>
   </g>
   <g id="patch_161">
    <path d="M 698.472484 143.932126 
L 698.798387 143.932126 
L 698.798387 129.636903 
L 698.472484 129.636903 
z
" clip-path="url(#pe410f72239)" style="fill: #ee82ee; opacity: 0.85"/>
   </g>
   <g id="patch_162">
    <path d="M 699.12429 143.932126 
L 700.101998 143.932126 
L 700.101998 129.636903 
L 699.12429 129.636903 
z
" clip-path="url(#pe410f72239)" style="fill: #ee82ee; opacity: 0.85"/>
   </g>
   <g id="patch_163">
    <path d="M 700.427901 143.932126 
L 702.057416 143.932126 
L 702.057416 129.636903 
L 700.427901 129.636903 
z
" clip-path="url(#pe410f72239)" style="fill: #ee82ee; opacity: 0.85"/>
   </g>
   <g id="patch_164">
    <path d="M 702.709222 143.932126 
L 703.361027 143.932126 
L 703.361027 129.636903 
L 702.709222 129.636903 
z
" clip-path="url(#pe410f72239)" style="fill: #ee82ee; opacity: 0.85"/>
   </g>
   <g id="patch_165">
    <path d="M 706.294154 143.932126 
L 706.945959 143.932126 
L 706.945959 129.636903 
L 706.294154 129.636903 
z
" clip-path="url(#pe410f72239)" style="fill: #ee82ee; opacity: 0.85"/>
   </g>
   <g id="patch_166">
    <path d="M 730.085066 143.932126 
L 730.736871 143.932126 
L 730.736871 129.636903 
L 730.085066 129.636903 
z
" clip-path="url(#pe410f72239)" style="fill: #ee82ee; opacity: 0.85"/>
   </g>
   <g id="patch_167">
    <path d="M 731.71458 143.932126 
L 732.040483 143.932126 
L 732.040483 129.636903 
L 731.71458 129.636903 
z
" clip-path="url(#pe410f72239)" style="fill: #ee82ee; opacity: 0.85"/>
   </g>
   <g id="patch_168">
    <path d="M 732.366386 143.932126 
L 733.344095 143.932126 
L 733.344095 129.636903 
L 732.366386 129.636903 
z
" clip-path="url(#pe410f72239)" style="fill: #ee82ee; opacity: 0.85"/>
   </g>
   <g id="patch_169">
    <path d="M 743.121182 143.932126 
L 743.447085 143.932126 
L 743.447085 129.636903 
L 743.121182 129.636903 
z
" clip-path="url(#pe410f72239)" style="fill: #ee82ee; opacity: 0.85"/>
   </g>
   <g id="patch_170">
    <path d="M 743.772987 143.932126 
L 744.424793 143.932126 
L 744.424793 129.636903 
L 743.772987 129.636903 
z
" clip-path="url(#pe410f72239)" style="fill: #ee82ee; opacity: 0.85"/>
   </g>
   <g id="patch_171">
    <path d="M 744.750696 143.932126 
L 751.92056 143.932126 
L 751.92056 129.636903 
L 744.750696 129.636903 
z
" clip-path="url(#pe410f72239)" style="fill: #ee82ee; opacity: 0.85"/>
   </g>
   <g id="patch_172">
    <path d="M 752.898269 143.932126 
L 753.224172 143.932126 
L 753.224172 129.636903 
L 752.898269 129.636903 
z
" clip-path="url(#pe410f72239)" style="fill: #ee82ee; opacity: 0.85"/>
   </g>
   <g id="patch_173">
    <path d="M 754.853686 143.932126 
L 755.179589 143.932126 
L 755.179589 129.636903 
L 754.853686 129.636903 
z
" clip-path="url(#pe410f72239)" style="fill: #ee82ee; opacity: 0.85"/>
   </g>
   <g id="patch_174">
    <path d="M 755.505492 143.932126 
L 756.483201 143.932126 
L 756.483201 129.636903 
L 755.505492 129.636903 
z
" clip-path="url(#pe410f72239)" style="fill: #ee82ee; opacity: 0.85"/>
   </g>
   <g id="patch_175">
    <path d="M 756.809104 143.932126 
L 757.135006 143.932126 
L 757.135006 129.636903 
L 756.809104 129.636903 
z
" clip-path="url(#pe410f72239)" style="fill: #ee82ee; opacity: 0.85"/>
   </g>
   <g id="patch_176">
    <path d="M 758.112715 143.932126 
L 758.438618 143.932126 
L 758.438618 129.636903 
L 758.112715 129.636903 
z
" clip-path="url(#pe410f72239)" style="fill: #ee82ee; opacity: 0.85"/>
   </g>
   <g id="patch_177">
    <path d="M 762.02355 143.932126 
L 762.349453 143.932126 
L 762.349453 129.636903 
L 762.02355 129.636903 
z
" clip-path="url(#pe410f72239)" style="fill: #ee82ee; opacity: 0.85"/>
   </g>
   <g id="patch_178">
    <path d="M 765.608482 143.932126 
L 765.934385 143.932126 
L 765.934385 129.636903 
L 765.608482 129.636903 
z
" clip-path="url(#pe410f72239)" style="fill: #ee82ee; opacity: 0.85"/>
   </g>
   <g id="patch_179">
    <path d="M 766.260288 143.932126 
L 766.586191 143.932126 
L 766.586191 129.636903 
L 766.260288 129.636903 
z
" clip-path="url(#pe410f72239)" style="fill: #ee82ee; opacity: 0.85"/>
   </g>
   <g id="patch_180">
    <path d="M 794.61384 143.932126 
L 827.530033 143.932126 
L 827.530033 129.636903 
L 794.61384 129.636903 
z
" clip-path="url(#pe410f72239)" style="fill: #ee82ee; opacity: 0.85"/>
   </g>
   <g id="patch_181">
    <path d="M 909.331662 143.932126 
L 938.33702 143.932126 
L 938.33702 129.636903 
L 909.331662 129.636903 
z
" clip-path="url(#pe410f72239)" style="fill: #ee82ee; opacity: 0.85"/>
   </g>
   <g id="patch_182">
    <path d="M 1040.996435 143.932126 
L 1066.742764 143.932126 
L 1066.742764 129.636903 
L 1040.996435 129.636903 
z
" clip-path="url(#pe410f72239)" style="fill: #ee82ee; opacity: 0.85"/>
   </g>
   <g id="patch_183">
    <path d="M 1160.6028 143.932126 
L 1160.928703 143.932126 
L 1160.928703 129.636903 
L 1160.6028 129.636903 
z
" clip-path="url(#pe410f72239)" style="fill: #ee82ee; opacity: 0.85"/>
   </g>
   <g id="patch_184">
    <path d="M 1161.254606 143.932126 
L 1167.772664 143.932126 
L 1167.772664 129.636903 
L 1161.254606 129.636903 
z
" clip-path="url(#pe410f72239)" style="fill: #ee82ee; opacity: 0.85"/>
   </g>
   <g id="patch_185">
    <path d="M 1168.098567 143.932126 
L 1168.42447 143.932126 
L 1168.42447 129.636903 
L 1168.098567 129.636903 
z
" clip-path="url(#pe410f72239)" style="fill: #ee82ee; opacity: 0.85"/>
   </g>
   <g id="patch_186">
    <path d="M 1168.750372 143.932126 
L 1169.402178 143.932126 
L 1169.402178 129.636903 
L 1168.750372 129.636903 
z
" clip-path="url(#pe410f72239)" style="fill: #ee82ee; opacity: 0.85"/>
   </g>
   <g id="patch_187">
    <path d="M 1169.728081 143.932126 
L 1171.031693 143.932126 
L 1171.031693 129.636903 
L 1169.728081 129.636903 
z
" clip-path="url(#pe410f72239)" style="fill: #ee82ee; opacity: 0.85"/>
   </g>
   <g id="patch_188">
    <path d="M 1171.357596 143.932126 
L 1172.009401 143.932126 
L 1172.009401 129.636903 
L 1171.357596 129.636903 
z
" clip-path="url(#pe410f72239)" style="fill: #ee82ee; opacity: 0.85"/>
   </g>
   <g id="patch_189">
    <path d="M 1172.335304 143.932126 
L 1174.942528 143.932126 
L 1174.942528 129.636903 
L 1172.335304 129.636903 
z
" clip-path="url(#pe410f72239)" style="fill: #ee82ee; opacity: 0.85"/>
   </g>
   <g id="patch_190">
    <path d="M 1191.237673 143.932126 
L 1191.889479 143.932126 
L 1191.889479 129.636903 
L 1191.237673 129.636903 
z
" clip-path="url(#pe410f72239)" style="fill: #ee82ee; opacity: 0.85"/>
   </g>
   <g id="patch_191">
    <path d="M 1192.215381 143.932126 
L 1192.867187 143.932126 
L 1192.867187 129.636903 
L 1192.215381 129.636903 
z
" clip-path="url(#pe410f72239)" style="fill: #ee82ee; opacity: 0.85"/>
   </g>
   <g id="patch_192">
    <path d="M 1193.19309 143.932126 
L 1194.170799 143.932126 
L 1194.170799 129.636903 
L 1193.19309 129.636903 
z
" clip-path="url(#pe410f72239)" style="fill: #ee82ee; opacity: 0.85"/>
   </g>
   <g id="patch_193">
    <path d="M 1195.800313 143.932126 
L 1196.452119 143.932126 
L 1196.452119 129.636903 
L 1195.800313 129.636903 
z
" clip-path="url(#pe410f72239)" style="fill: #ee82ee; opacity: 0.85"/>
   </g>
   <g id="patch_194">
    <path d="M 1197.103925 143.932126 
L 1197.429828 143.932126 
L 1197.429828 129.636903 
L 1197.103925 129.636903 
z
" clip-path="url(#pe410f72239)" style="fill: #ee82ee; opacity: 0.85"/>
   </g>
   <g id="patch_195">
    <path d="M 166.273044 90.325039 
L 190.389859 90.325039 
L 190.389859 76.029815 
L 166.273044 76.029815 
z
" clip-path="url(#pe410f72239)" style="fill: #32cd32; opacity: 0.85"/>
   </g>
   <g id="patch_196">
    <path d="M 220.698829 90.325039 
L 245.467449 90.325039 
L 245.467449 76.029815 
L 220.698829 76.029815 
z
" clip-path="url(#pe410f72239)" style="fill: #32cd32; opacity: 0.85"/>
   </g>
   <g id="patch_197">
    <path d="M 245.793352 90.325039 
L 246.119255 90.325039 
L 246.119255 76.029815 
L 245.793352 76.029815 
z
" clip-path="url(#pe410f72239)" style="fill: #32cd32; opacity: 0.85"/>
   </g>
   <g id="patch_198">
    <path d="M 248.726478 90.325039 
L 250.03009 90.325039 
L 250.03009 76.029815 
L 248.726478 76.029815 
z
" clip-path="url(#pe410f72239)" style="fill: #32cd32; opacity: 0.85"/>
   </g>
   <g id="patch_199">
    <path d="M 251.333702 90.325039 
L 252.31141 90.325039 
L 252.31141 76.029815 
L 251.333702 76.029815 
z
" clip-path="url(#pe410f72239)" style="fill: #32cd32; opacity: 0.85"/>
   </g>
   <g id="patch_200">
    <path d="M 252.637313 90.325039 
L 253.615022 90.325039 
L 253.615022 76.029815 
L 252.637313 76.029815 
z
" clip-path="url(#pe410f72239)" style="fill: #32cd32; opacity: 0.85"/>
   </g>
   <g id="patch_201">
    <path d="M 254.918633 90.325039 
L 257.525857 90.325039 
L 257.525857 76.029815 
L 254.918633 76.029815 
z
" clip-path="url(#pe410f72239)" style="fill: #32cd32; opacity: 0.85"/>
   </g>
   <g id="patch_202">
    <path d="M 258.503565 90.325039 
L 261.436691 90.325039 
L 261.436691 76.029815 
L 258.503565 76.029815 
z
" clip-path="url(#pe410f72239)" style="fill: #32cd32; opacity: 0.85"/>
   </g>
   <g id="patch_203">
    <path d="M 261.762594 90.325039 
L 262.088497 90.325039 
L 262.088497 76.029815 
L 261.762594 76.029815 
z
" clip-path="url(#pe410f72239)" style="fill: #32cd32; opacity: 0.85"/>
   </g>
   <g id="patch_204">
    <path d="M 264.043915 90.325039 
L 264.369818 90.325039 
L 264.369818 76.029815 
L 264.043915 76.029815 
z
" clip-path="url(#pe410f72239)" style="fill: #32cd32; opacity: 0.85"/>
   </g>
   <g id="patch_205">
    <path d="M 265.999332 90.325039 
L 266.325235 90.325039 
L 266.325235 76.029815 
L 265.999332 76.029815 
z
" clip-path="url(#pe410f72239)" style="fill: #32cd32; opacity: 0.85"/>
   </g>
   <g id="patch_206">
    <path d="M 267.95475 90.325039 
L 268.606555 90.325039 
L 268.606555 76.029815 
L 267.95475 76.029815 
z
" clip-path="url(#pe410f72239)" style="fill: #32cd32; opacity: 0.85"/>
   </g>
   <g id="patch_207">
    <path d="M 270.23607 90.325039 
L 285.227603 90.325039 
L 285.227603 76.029815 
L 270.23607 76.029815 
z
" clip-path="url(#pe410f72239)" style="fill: #32cd32; opacity: 0.85"/>
   </g>
   <g id="patch_208">
    <path d="M 285.553506 90.325039 
L 291.745661 90.325039 
L 291.745661 76.029815 
L 285.553506 76.029815 
z
" clip-path="url(#pe410f72239)" style="fill: #32cd32; opacity: 0.85"/>
   </g>
   <g id="patch_209">
    <path d="M 338.675679 90.325039 
L 339.327485 90.325039 
L 339.327485 76.029815 
L 338.675679 76.029815 
z
" clip-path="url(#pe410f72239)" style="fill: #32cd32; opacity: 0.85"/>
   </g>
   <g id="patch_210">
    <path d="M 340.631097 90.325039 
L 340.957 90.325039 
L 340.957 76.029815 
L 340.631097 76.029815 
z
" clip-path="url(#pe410f72239)" style="fill: #32cd32; opacity: 0.85"/>
   </g>
   <g id="patch_211">
    <path d="M 341.608806 90.325039 
L 341.934708 90.325039 
L 341.934708 76.029815 
L 341.608806 76.029815 
z
" clip-path="url(#pe410f72239)" style="fill: #32cd32; opacity: 0.85"/>
   </g>
   <g id="patch_212">
    <path d="M 342.260611 90.325039 
L 342.912417 90.325039 
L 342.912417 76.029815 
L 342.260611 76.029815 
z
" clip-path="url(#pe410f72239)" style="fill: #32cd32; opacity: 0.85"/>
   </g>
   <g id="patch_213">
    <path d="M 348.126864 90.325039 
L 348.452767 90.325039 
L 348.452767 76.029815 
L 348.126864 76.029815 
z
" clip-path="url(#pe410f72239)" style="fill: #32cd32; opacity: 0.85"/>
   </g>
   <g id="patch_214">
    <path d="M 351.05999 90.325039 
L 352.689504 90.325039 
L 352.689504 76.029815 
L 351.05999 76.029815 
z
" clip-path="url(#pe410f72239)" style="fill: #32cd32; opacity: 0.85"/>
   </g>
   <g id="patch_215">
    <path d="M 353.015407 90.325039 
L 354.970825 90.325039 
L 354.970825 76.029815 
L 353.015407 76.029815 
z
" clip-path="url(#pe410f72239)" style="fill: #32cd32; opacity: 0.85"/>
   </g>
   <g id="patch_216">
    <path d="M 356.600339 90.325039 
L 356.926242 90.325039 
L 356.926242 76.029815 
L 356.600339 76.029815 
z
" clip-path="url(#pe410f72239)" style="fill: #32cd32; opacity: 0.85"/>
   </g>
   <g id="patch_217">
    <path d="M 357.252145 90.325039 
L 357.578048 90.325039 
L 357.578048 76.029815 
L 357.252145 76.029815 
z
" clip-path="url(#pe410f72239)" style="fill: #32cd32; opacity: 0.85"/>
   </g>
   <g id="patch_218">
    <path d="M 357.903951 90.325039 
L 358.229854 90.325039 
L 358.229854 76.029815 
L 357.903951 76.029815 
z
" clip-path="url(#pe410f72239)" style="fill: #32cd32; opacity: 0.85"/>
   </g>
   <g id="patch_219">
    <path d="M 358.555756 90.325039 
L 366.703329 90.325039 
L 366.703329 76.029815 
L 358.555756 76.029815 
z
" clip-path="url(#pe410f72239)" style="fill: #32cd32; opacity: 0.85"/>
   </g>
   <g id="patch_220">
    <path d="M 367.029232 90.325039 
L 368.658746 90.325039 
L 368.658746 76.029815 
L 367.029232 76.029815 
z
" clip-path="url(#pe410f72239)" style="fill: #32cd32; opacity: 0.85"/>
   </g>
   <g id="patch_221">
    <path d="M 369.310552 90.325039 
L 369.636455 90.325039 
L 369.636455 76.029815 
L 369.310552 76.029815 
z
" clip-path="url(#pe410f72239)" style="fill: #32cd32; opacity: 0.85"/>
   </g>
   <g id="patch_222">
    <path d="M 372.895484 90.325039 
L 373.221387 90.325039 
L 373.221387 76.029815 
L 372.895484 76.029815 
z
" clip-path="url(#pe410f72239)" style="fill: #32cd32; opacity: 0.85"/>
   </g>
   <g id="patch_223">
    <path d="M 402.878551 90.325039 
L 421.129114 90.325039 
L 421.129114 76.029815 
L 402.878551 76.029815 
z
" clip-path="url(#pe410f72239)" style="fill: #32cd32; opacity: 0.85"/>
   </g>
   <g id="patch_224">
    <path d="M 421.78092 90.325039 
L 422.106823 90.325039 
L 422.106823 76.029815 
L 421.78092 76.029815 
z
" clip-path="url(#pe410f72239)" style="fill: #32cd32; opacity: 0.85"/>
   </g>
   <g id="patch_225">
    <path d="M 441.009191 90.325039 
L 441.9869 90.325039 
L 441.9869 76.029815 
L 441.009191 76.029815 
z
" clip-path="url(#pe410f72239)" style="fill: #32cd32; opacity: 0.85"/>
   </g>
   <g id="patch_226">
    <path d="M 442.312802 90.325039 
L 442.638705 90.325039 
L 442.638705 76.029815 
L 442.312802 76.029815 
z
" clip-path="url(#pe410f72239)" style="fill: #32cd32; opacity: 0.85"/>
   </g>
   <g id="patch_227">
    <path d="M 442.964608 90.325039 
L 443.290511 90.325039 
L 443.290511 76.029815 
L 442.964608 76.029815 
z
" clip-path="url(#pe410f72239)" style="fill: #32cd32; opacity: 0.85"/>
   </g>
   <g id="patch_228">
    <path d="M 444.26822 90.325039 
L 445.571831 90.325039 
L 445.571831 76.029815 
L 444.26822 76.029815 
z
" clip-path="url(#pe410f72239)" style="fill: #32cd32; opacity: 0.85"/>
   </g>
   <g id="patch_229">
    <path d="M 446.875443 90.325039 
L 447.201346 90.325039 
L 447.201346 76.029815 
L 446.875443 76.029815 
z
" clip-path="url(#pe410f72239)" style="fill: #32cd32; opacity: 0.85"/>
   </g>
   <g id="patch_230">
    <path d="M 448.179055 90.325039 
L 448.504958 90.325039 
L 448.504958 76.029815 
L 448.179055 76.029815 
z
" clip-path="url(#pe410f72239)" style="fill: #32cd32; opacity: 0.85"/>
   </g>
   <g id="patch_231">
    <path d="M 449.156763 90.325039 
L 454.37121 90.325039 
L 454.37121 76.029815 
L 449.156763 76.029815 
z
" clip-path="url(#pe410f72239)" style="fill: #32cd32; opacity: 0.85"/>
   </g>
   <g id="patch_232">
    <path d="M 455.023016 90.325039 
L 459.911559 90.325039 
L 459.911559 76.029815 
L 455.023016 76.029815 
z
" clip-path="url(#pe410f72239)" style="fill: #32cd32; opacity: 0.85"/>
   </g>
   <g id="patch_233">
    <path d="M 460.237462 90.325039 
L 460.563365 90.325039 
L 460.563365 76.029815 
L 460.237462 76.029815 
z
" clip-path="url(#pe410f72239)" style="fill: #32cd32; opacity: 0.85"/>
   </g>
   <g id="patch_234">
    <path d="M 646.002117 90.325039 
L 661.971359 90.325039 
L 661.971359 76.029815 
L 646.002117 76.029815 
z
" clip-path="url(#pe410f72239)" style="fill: #32cd32; opacity: 0.85"/>
   </g>
   <g id="patch_235">
    <path d="M 698.146581 90.325039 
L 725.196522 90.325039 
L 725.196522 76.029815 
L 698.146581 76.029815 
z
" clip-path="url(#pe410f72239)" style="fill: #32cd32; opacity: 0.85"/>
   </g>
   <g id="patch_236">
    <path d="M 725.848328 90.325039 
L 726.174231 90.325039 
L 726.174231 76.029815 
L 725.848328 76.029815 
z
" clip-path="url(#pe410f72239)" style="fill: #32cd32; opacity: 0.85"/>
   </g>
   <g id="patch_237">
    <path d="M 726.826036 90.325039 
L 729.107357 90.325039 
L 729.107357 76.029815 
L 726.826036 76.029815 
z
" clip-path="url(#pe410f72239)" style="fill: #32cd32; opacity: 0.85"/>
   </g>
   <g id="patch_238">
    <path d="M 729.43326 90.325039 
L 730.085066 90.325039 
L 730.085066 76.029815 
L 729.43326 76.029815 
z
" clip-path="url(#pe410f72239)" style="fill: #32cd32; opacity: 0.85"/>
   </g>
   <g id="patch_239">
    <path d="M 1214.376779 90.325039 
L 1214.702682 90.325039 
L 1214.702682 76.029815 
L 1214.376779 76.029815 
z
" clip-path="url(#pe410f72239)" style="fill: #32cd32; opacity: 0.85"/>
   </g>
   <g id="patch_240">
    <path d="M 1216.006293 90.325039 
L 1216.332196 90.325039 
L 1216.332196 76.029815 
L 1216.006293 76.029815 
z
" clip-path="url(#pe410f72239)" style="fill: #32cd32; opacity: 0.85"/>
   </g>
   <g id="patch_241">
    <path d="M 346.823252 36.717951 
L 347.149155 36.717951 
L 347.149155 22.422727 
L 346.823252 22.422727 
z
" clip-path="url(#pe410f72239)" style="fill: #ff6347; opacity: 0.85"/>
   </g>
   <g id="patch_242">
    <path d="M 347.475058 36.717951 
L 348.778669 36.717951 
L 348.778669 22.422727 
L 347.475058 22.422727 
z
" clip-path="url(#pe410f72239)" style="fill: #ff6347; opacity: 0.85"/>
   </g>
   <g id="patch_243">
    <path d="M 349.104572 36.717951 
L 355.296727 36.717951 
L 355.296727 22.422727 
L 349.104572 22.422727 
z
" clip-path="url(#pe410f72239)" style="fill: #ff6347; opacity: 0.85"/>
   </g>
   <g id="patch_244">
    <path d="M 355.62263 36.717951 
L 358.881659 36.717951 
L 358.881659 22.422727 
L 355.62263 22.422727 
z
" clip-path="url(#pe410f72239)" style="fill: #ff6347; opacity: 0.85"/>
   </g>
   <g id="patch_245">
    <path d="M 359.207562 36.717951 
L 360.511174 36.717951 
L 360.511174 22.422727 
L 359.207562 22.422727 
z
" clip-path="url(#pe410f72239)" style="fill: #ff6347; opacity: 0.85"/>
   </g>
   <g id="patch_246">
    <path d="M 361.16298 36.717951 
L 361.488883 36.717951 
L 361.488883 22.422727 
L 361.16298 22.422727 
z
" clip-path="url(#pe410f72239)" style="fill: #ff6347; opacity: 0.85"/>
   </g>
   <g id="patch_247">
    <path d="M 362.466591 36.717951 
L 367.355135 36.717951 
L 367.355135 22.422727 
L 362.466591 22.422727 
z
" clip-path="url(#pe410f72239)" style="fill: #ff6347; opacity: 0.85"/>
   </g>
   <g id="patch_248">
    <path d="M 368.658746 36.717951 
L 369.962358 36.717951 
L 369.962358 22.422727 
L 368.658746 22.422727 
z
" clip-path="url(#pe410f72239)" style="fill: #ff6347; opacity: 0.85"/>
   </g>
   <g id="patch_249">
    <path d="M 370.288261 36.717951 
L 371.591873 36.717951 
L 371.591873 22.422727 
L 370.288261 22.422727 
z
" clip-path="url(#pe410f72239)" style="fill: #ff6347; opacity: 0.85"/>
   </g>
   <g id="patch_250">
    <path d="M 372.243678 36.717951 
L 373.221387 36.717951 
L 373.221387 22.422727 
L 372.243678 22.422727 
z
" clip-path="url(#pe410f72239)" style="fill: #ff6347; opacity: 0.85"/>
   </g>
   <g id="patch_251">
    <path d="M 373.54729 36.717951 
L 377.784028 36.717951 
L 377.784028 22.422727 
L 373.54729 22.422727 
z
" clip-path="url(#pe410f72239)" style="fill: #ff6347; opacity: 0.85"/>
   </g>
   <g id="patch_252">
    <path d="M 424.06224 36.717951 
L 439.705579 36.717951 
L 439.705579 22.422727 
L 424.06224 22.422727 
z
" clip-path="url(#pe410f72239)" style="fill: #ff6347; opacity: 0.85"/>
   </g>
   <g id="patch_253">
    <path d="M 551.490275 36.717951 
L 568.111323 36.717951 
L 568.111323 22.422727 
L 551.490275 22.422727 
z
" clip-path="url(#pe410f72239)" style="fill: #ff6347; opacity: 0.85"/>
   </g>
   <g id="patch_254">
    <path d="M 661.971359 36.717951 
L 675.659281 36.717951 
L 675.659281 22.422727 
L 661.971359 22.422727 
z
" clip-path="url(#pe410f72239)" style="fill: #ff6347; opacity: 0.85"/>
   </g>
   <g id="patch_255">
    <path d="M 676.311087 36.717951 
L 677.614698 36.717951 
L 677.614698 22.422727 
L 676.311087 22.422727 
z
" clip-path="url(#pe410f72239)" style="fill: #ff6347; opacity: 0.85"/>
   </g>
   <g id="patch_256">
    <path d="M 681.851436 36.717951 
L 735.299512 36.717951 
L 735.299512 22.422727 
L 681.851436 22.422727 
z
" clip-path="url(#pe410f72239)" style="fill: #ff6347; opacity: 0.85"/>
   </g>
   <g id="patch_257">
    <path d="M 735.625415 36.717951 
L 738.232638 36.717951 
L 738.232638 22.422727 
L 735.625415 22.422727 
z
" clip-path="url(#pe410f72239)" style="fill: #ff6347; opacity: 0.85"/>
   </g>
   <g id="patch_258">
    <path d="M 753.875977 36.717951 
L 754.20188 36.717951 
L 754.20188 22.422727 
L 753.875977 22.422727 
z
" clip-path="url(#pe410f72239)" style="fill: #ff6347; opacity: 0.85"/>
   </g>
   <g id="patch_259">
    <path d="M 755.831395 36.717951 
L 756.483201 36.717951 
L 756.483201 22.422727 
L 755.831395 22.422727 
z
" clip-path="url(#pe410f72239)" style="fill: #ff6347; opacity: 0.85"/>
   </g>
   <g id="patch_260">
    <path d="M 765.608482 36.717951 
L 766.586191 36.717951 
L 766.586191 22.422727 
L 765.608482 22.422727 
z
" clip-path="url(#pe410f72239)" style="fill: #ff6347; opacity: 0.85"/>
   </g>
   <g id="patch_261">
    <path d="M 767.237996 36.717951 
L 767.563899 36.717951 
L 767.563899 22.422727 
L 767.237996 22.422727 
z
" clip-path="url(#pe410f72239)" style="fill: #ff6347; opacity: 0.85"/>
   </g>
   <g id="patch_262">
    <path d="M 1026.656707 36.717951 
L 1040.996435 36.717951 
L 1040.996435 22.422727 
L 1026.656707 22.422727 
z
" clip-path="url(#pe410f72239)" style="fill: #ff6347; opacity: 0.85"/>
   </g>
   <g id="patch_263">
    <path d="M 15.38 243.82 
L 15.38 11.88 
" style="fill: none; stroke: #000000; stroke-width: 0.8; stroke-linejoin: miter; stroke-linecap: square"/>
   </g>
   <g id="patch_264">
    <path d="M 1284.12 243.82 
L 1284.12 11.88 
" style="fill: none; stroke: #000000; stroke-width: 0.8; stroke-linejoin: miter; stroke-linecap: square"/>
   </g>
   <g id="patch_265">
    <path d="M 15.38 243.82 
L 1284.12 243.82 
" style="fill: none; stroke: #000000; stroke-width: 0.8; stroke-linejoin: miter; stroke-linecap: square"/>
   </g>
   <g id="patch_266">
    <path d="M 15.38 11.88 
L 1284.12 11.88 
" style="fill: none; stroke: #000000; stroke-width: 0.8; stroke-linejoin: miter; stroke-linecap: square"/>
   </g>
  </g>
 </g>
 <defs>
  <clipPath id="pe410f72239">
   <rect x="15.38" y="11.88" width="1268.74" height="231.94"/>
  </clipPath>
 </defs>
</svg>
