<?xml version="1.0" encoding="utf-8" standalone="no"?>
<!DOCTYPE svg PUBLIC "-//W3C//DTD SVG 1.1//EN"
  "http://www.w3.org/Graphics/SVG/1.1/DTD/svg11.dtd">
<svg xmlns:xlink="http://www.w3.org/1999/xlink" width="1296pt" height="194.4pt" viewBox="0 0 1296 194.4" xmlns="http://www.w3.org/2000/svg" version="1.1">
 <metadata>
  <rdf:RDF xmlns:dc="http://purl.org/dc/elements/1.1/" xmlns:cc="http://creativecommons.org/ns#" xmlns:rdf="http://www.w3.org/1999/02/22-rdf-syntax-ns#">
   <cc:Work>
    <dc:type rdf:resource="http://purl.org/dc/dcmitype/StillImage"/>
    <dc:date>2022-12-30T20:52:34.223955</dc:date>
    <dc:format>image/svg+xml</dc:format>
    <dc:creator>
     <cc:Agent>
      <dc:title>Matplotlib v3.5.0, https://matplotlib.org/</dc:title>
     </cc:Agent>
    </dc:creator>
   </cc:Work>
  </rdf:RDF>
 </metadata>
 <defs>
  <style type="text/css">*{stroke-linejoin: round; stroke-linecap: butt}</style>
 </defs>
 <g id="figure_1">
  <g id="patch_1">
   <path d="M 0 194.4 
L 1296 194.4 
L 1296 0 
L 0 0 
z
" style="fill: #ffffff"/>
  </g>
  <g id="axes_1">
   <g id="patch_2">
    <path d="M 15.38 179.02 
L 1284.12 179.02 
L 1284.12 11.88 
L 15.38 11.88 
z
" style="fill: #ffffff"/>
   </g>
   <g id="patch_3">
    <path d="M 39.67274 171.422727 
L 65.219599 171.422727 
L 65.219599 157.609504 
L 39.67274 157.609504 
z
" clip-path="url(#pb0875b161d)" style="fill: #00bfff; opacity: 0.45"/>
   </g>
   <g id="patch_4">
    <path d="M 71.908231 171.422727 
L 221.008989 171.422727 
L 221.008989 157.609504 
L 71.908231 157.609504 
z
" clip-path="url(#pb0875b161d)" style="fill: #00bfff; opacity: 0.45"/>
   </g>
   <g id="patch_5">
    <path d="M 267.457824 171.422727 
L 280.138356 171.422727 
L 280.138356 157.609504 
L 267.457824 157.609504 
z
" clip-path="url(#pb0875b161d)" style="fill: #00bfff; opacity: 0.45"/>
   </g>
   <g id="patch_6">
    <path d="M 316.693588 171.422727 
L 336.666587 171.422727 
L 336.666587 157.609504 
L 316.693588 157.609504 
z
" clip-path="url(#pb0875b161d)" style="fill: #00bfff; opacity: 0.45"/>
   </g>
   <g id="patch_7">
    <path d="M 359.101374 171.422727 
L 375.033324 171.422727 
L 375.033324 157.609504 
L 359.101374 157.609504 
z
" clip-path="url(#pb0875b161d)" style="fill: #00bfff; opacity: 0.45"/>
   </g>
   <g id="patch_8">
    <path d="M 385.716556 171.422727 
L 430.493232 171.422727 
L 430.493232 157.609504 
L 385.716556 157.609504 
z
" clip-path="url(#pb0875b161d)" style="fill: #00bfff; opacity: 0.45"/>
   </g>
   <g id="patch_9">
    <path d="M 506.948013 171.422727 
L 513.729543 171.422727 
L 513.729543 157.609504 
L 506.948013 157.609504 
z
" clip-path="url(#pb0875b161d)" style="fill: #00bfff; opacity: 0.45"/>
   </g>
   <g id="patch_10">
    <path d="M 524.459224 171.422727 
L 539.183504 171.422727 
L 539.183504 157.609504 
L 524.459224 157.609504 
z
" clip-path="url(#pb0875b161d)" style="fill: #00bfff; opacity: 0.45"/>
   </g>
   <g id="patch_11">
    <path d="M 551.864036 171.422727 
L 557.902385 171.422727 
L 557.902385 157.609504 
L 551.864036 157.609504 
z
" clip-path="url(#pb0875b161d)" style="fill: #00bfff; opacity: 0.45"/>
   </g>
   <g id="patch_12">
    <path d="M 563.151103 171.422727 
L 586.37552 171.422727 
L 586.37552 157.609504 
L 563.151103 157.609504 
z
" clip-path="url(#pb0875b161d)" style="fill: #00bfff; opacity: 0.45"/>
   </g>
   <g id="patch_13">
    <path d="M 611.922379 171.422727 
L 627.43629 171.422727 
L 627.43629 157.609504 
L 611.922379 157.609504 
z
" clip-path="url(#pb0875b161d)" style="fill: #00bfff; opacity: 0.45"/>
   </g>
   <g id="patch_14">
    <path d="M 634.542961 171.422727 
L 688.284263 171.422727 
L 688.284263 157.609504 
L 634.542961 157.609504 
z
" clip-path="url(#pb0875b161d)" style="fill: #00bfff; opacity: 0.45"/>
   </g>
   <g id="patch_15">
    <path d="M 699.246187 171.422727 
L 725.907818 171.422727 
L 725.907818 157.609504 
L 699.246187 157.609504 
z
" clip-path="url(#pb0875b161d)" style="fill: #00bfff; opacity: 0.45"/>
   </g>
   <g id="patch_16">
    <path d="M 743.558375 171.422727 
L 772.821141 171.422727 
L 772.821141 157.609504 
L 743.558375 157.609504 
z
" clip-path="url(#pb0875b161d)" style="fill: #00bfff; opacity: 0.45"/>
   </g>
   <g id="patch_17">
    <path d="M 792.329651 171.422727 
L 823.729063 171.422727 
L 823.729063 157.609504 
L 792.329651 157.609504 
z
" clip-path="url(#pb0875b161d)" style="fill: #00bfff; opacity: 0.45"/>
   </g>
   <g id="patch_18">
    <path d="M 834.412295 171.422727 
L 869.434716 171.422727 
L 869.434716 157.609504 
L 834.412295 157.609504 
z
" clip-path="url(#pb0875b161d)" style="fill: #00bfff; opacity: 0.45"/>
   </g>
   <g id="patch_19">
    <path d="M 882.719083 171.422727 
L 897.58271 171.422727 
L 897.58271 157.609504 
L 882.719083 157.609504 
z
" clip-path="url(#pb0875b161d)" style="fill: #00bfff; opacity: 0.45"/>
   </g>
   <g id="patch_20">
    <path d="M 902.552735 171.422727 
L 905.804154 171.422727 
L 905.804154 157.609504 
L 902.552735 157.609504 
z
" clip-path="url(#pb0875b161d)" style="fill: #00bfff; opacity: 0.45"/>
   </g>
   <g id="patch_21">
    <path d="M 924.848176 171.422727 
L 961.542755 171.422727 
L 961.542755 157.609504 
L 924.848176 157.609504 
z
" clip-path="url(#pb0875b161d)" style="fill: #00bfff; opacity: 0.45"/>
   </g>
   <g id="patch_22">
    <path d="M 970.971868 171.422727 
L 974.687775 171.422727 
L 974.687775 157.609504 
L 970.971868 157.609504 
z
" clip-path="url(#pb0875b161d)" style="fill: #00bfff; opacity: 0.45"/>
   </g>
   <g id="patch_23">
    <path d="M 982.769872 171.422727 
L 990.480379 171.422727 
L 990.480379 157.609504 
L 982.769872 157.609504 
z
" clip-path="url(#pb0875b161d)" style="fill: #00bfff; opacity: 0.45"/>
   </g>
   <g id="patch_24">
    <path d="M 1006.598124 171.422727 
L 1062.94056 171.422727 
L 1062.94056 157.609504 
L 1006.598124 157.609504 
z
" clip-path="url(#pb0875b161d)" style="fill: #00bfff; opacity: 0.45"/>
   </g>
   <g id="patch_25">
    <path d="M 1072.416122 171.422727 
L 1086.025631 171.422727 
L 1086.025631 157.609504 
L 1072.416122 157.609504 
z
" clip-path="url(#pb0875b161d)" style="fill: #00bfff; opacity: 0.45"/>
   </g>
   <g id="patch_26">
    <path d="M 1125.646486 171.422727 
L 1182.174718 171.422727 
L 1182.174718 157.609504 
L 1125.646486 157.609504 
z
" clip-path="url(#pb0875b161d)" style="fill: #00bfff; opacity: 0.45"/>
   </g>
   <g id="patch_27">
    <path d="M 1193.322438 171.422727 
L 1225.697276 171.422727 
L 1225.697276 157.609504 
L 1193.322438 157.609504 
z
" clip-path="url(#pb0875b161d)" style="fill: #00bfff; opacity: 0.45"/>
   </g>
   <g id="patch_28">
    <path d="M 1240.375107 171.422727 
L 1248.921693 171.422727 
L 1248.921693 157.609504 
L 1240.375107 157.609504 
z
" clip-path="url(#pb0875b161d)" style="fill: #00bfff; opacity: 0.45"/>
   </g>
   <g id="patch_29">
    <path d="M 1265.457478 171.422727 
L 1284.222807 171.422727 
L 1284.222807 157.609504 
L 1265.457478 157.609504 
z
" clip-path="url(#pb0875b161d)" style="fill: #00bfff; opacity: 0.45"/>
   </g>
   <g id="patch_30">
    <path d="M 39.67274 119.62314 
L 63.826134 119.62314 
L 63.826134 105.809917 
L 39.67274 105.809917 
z
" clip-path="url(#pb0875b161d)" style="fill: #ee82ee; opacity: 0.45"/>
   </g>
   <g id="patch_31">
    <path d="M 68.471018 119.62314 
L 88.444016 119.62314 
L 88.444016 105.809917 
L 68.471018 105.809917 
z
" clip-path="url(#pb0875b161d)" style="fill: #ee82ee; opacity: 0.45"/>
   </g>
   <g id="patch_32">
    <path d="M 101.635485 119.62314 
L 183.849922 119.62314 
L 183.849922 105.809917 
L 101.635485 105.809917 
z
" clip-path="url(#pb0875b161d)" style="fill: #ee82ee; opacity: 0.45"/>
   </g>
   <g id="patch_33">
    <path d="M 221.148336 119.62314 
L 267.272028 119.62314 
L 267.272028 105.809917 
L 221.148336 105.809917 
z
" clip-path="url(#pb0875b161d)" style="fill: #ee82ee; opacity: 0.45"/>
   </g>
   <g id="patch_34">
    <path d="M 280.277702 119.62314 
L 316.507793 119.62314 
L 316.507793 105.809917 
L 280.277702 105.809917 
z
" clip-path="url(#pb0875b161d)" style="fill: #ee82ee; opacity: 0.45"/>
   </g>
   <g id="patch_35">
    <path d="M 359.101374 119.62314 
L 375.033324 119.62314 
L 375.033324 105.809917 
L 359.101374 105.809917 
z
" clip-path="url(#pb0875b161d)" style="fill: #ee82ee; opacity: 0.45"/>
   </g>
   <g id="patch_36">
    <path d="M 406.154043 119.62314 
L 430.493232 119.62314 
L 430.493232 105.809917 
L 406.154043 105.809917 
z
" clip-path="url(#pb0875b161d)" style="fill: #ee82ee; opacity: 0.45"/>
   </g>
   <g id="patch_37">
    <path d="M 599.381194 119.62314 
L 611.783032 119.62314 
L 611.783032 105.809917 
L 599.381194 105.809917 
z
" clip-path="url(#pb0875b161d)" style="fill: #ee82ee; opacity: 0.45"/>
   </g>
   <g id="patch_38">
    <path d="M 634.542961 119.62314 
L 642.764405 119.62314 
L 642.764405 105.809917 
L 634.542961 105.809917 
z
" clip-path="url(#pb0875b161d)" style="fill: #ee82ee; opacity: 0.45"/>
   </g>
   <g id="patch_39">
    <path d="M 823.914859 119.62314 
L 834.272949 119.62314 
L 834.272949 105.809917 
L 823.914859 105.809917 
z
" clip-path="url(#pb0875b161d)" style="fill: #ee82ee; opacity: 0.45"/>
   </g>
   <g id="patch_40">
    <path d="M 869.713409 119.62314 
L 882.579737 119.62314 
L 882.579737 105.809917 
L 869.713409 105.809917 
z
" clip-path="url(#pb0875b161d)" style="fill: #ee82ee; opacity: 0.45"/>
   </g>
   <g id="patch_41">
    <path d="M 908.916226 119.62314 
L 911.378014 119.62314 
L 911.378014 105.809917 
L 908.916226 105.809917 
z
" clip-path="url(#pb0875b161d)" style="fill: #ee82ee; opacity: 0.45"/>
   </g>
   <g id="patch_42">
    <path d="M 961.682101 119.62314 
L 970.832522 119.62314 
L 970.832522 105.809917 
L 961.682101 105.809917 
z
" clip-path="url(#pb0875b161d)" style="fill: #ee82ee; opacity: 0.45"/>
   </g>
   <g id="patch_43">
    <path d="M 1063.126355 119.62314 
L 1072.230327 119.62314 
L 1072.230327 105.809917 
L 1063.126355 105.809917 
z
" clip-path="url(#pb0875b161d)" style="fill: #ee82ee; opacity: 0.45"/>
   </g>
   <g id="patch_44">
    <path d="M 1086.164977 119.62314 
L 1098.241674 119.62314 
L 1098.241674 105.809917 
L 1086.164977 105.809917 
z
" clip-path="url(#pb0875b161d)" style="fill: #ee82ee; opacity: 0.45"/>
   </g>
   <g id="patch_45">
    <path d="M 1232.339459 119.62314 
L 1240.235761 119.62314 
L 1240.235761 105.809917 
L 1232.339459 105.809917 
z
" clip-path="url(#pb0875b161d)" style="fill: #ee82ee; opacity: 0.45"/>
   </g>
   <g id="patch_46">
    <path d="M 354.131349 67.823554 
L 385.577209 67.823554 
L 385.577209 54.010331 
L 354.131349 54.010331 
z
" clip-path="url(#pb0875b161d)" style="fill: #32cd32; opacity: 0.45"/>
   </g>
   <g id="patch_47">
    <path d="M 406.154043 67.823554 
L 430.493232 67.823554 
L 430.493232 54.010331 
L 406.154043 54.010331 
z
" clip-path="url(#pb0875b161d)" style="fill: #32cd32; opacity: 0.45"/>
   </g>
   <g id="patch_48">
    <path d="M 451.534554 67.823554 
L 457.433556 67.823554 
L 457.433556 54.010331 
L 451.534554 54.010331 
z
" clip-path="url(#pb0875b161d)" style="fill: #32cd32; opacity: 0.45"/>
   </g>
   <g id="patch_49">
    <path d="M 471.043065 67.823554 
L 476.616925 67.823554 
L 476.616925 54.010331 
L 471.043065 54.010331 
z
" clip-path="url(#pb0875b161d)" style="fill: #32cd32; opacity: 0.45"/>
   </g>
   <g id="patch_50">
    <path d="M 482.051438 67.823554 
L 493.199159 67.823554 
L 493.199159 54.010331 
L 482.051438 54.010331 
z
" clip-path="url(#pb0875b161d)" style="fill: #32cd32; opacity: 0.45"/>
   </g>
   <g id="patch_51">
    <path d="M 558.041731 67.823554 
L 563.011756 67.823554 
L 563.011756 54.010331 
L 558.041731 54.010331 
z
" clip-path="url(#pb0875b161d)" style="fill: #32cd32; opacity: 0.45"/>
   </g>
   <g id="patch_52">
    <path d="M 586.561315 67.823554 
L 591.484892 67.823554 
L 591.484892 54.010331 
L 586.561315 54.010331 
z
" clip-path="url(#pb0875b161d)" style="fill: #32cd32; opacity: 0.45"/>
   </g>
   <g id="patch_53">
    <path d="M 627.575636 67.823554 
L 699.106841 67.823554 
L 699.106841 54.010331 
L 627.575636 54.010331 
z
" clip-path="url(#pb0875b161d)" style="fill: #32cd32; opacity: 0.45"/>
   </g>
   <g id="patch_54">
    <path d="M 726.047165 67.823554 
L 743.37258 67.823554 
L 743.37258 54.010331 
L 726.047165 54.010331 
z
" clip-path="url(#pb0875b161d)" style="fill: #32cd32; opacity: 0.45"/>
   </g>
   <g id="patch_55">
    <path d="M 772.960488 67.823554 
L 792.143856 67.823554 
L 792.143856 54.010331 
L 772.960488 54.010331 
z
" clip-path="url(#pb0875b161d)" style="fill: #32cd32; opacity: 0.45"/>
   </g>
   <g id="patch_56">
    <path d="M 834.412295 67.823554 
L 869.434716 67.823554 
L 869.434716 54.010331 
L 834.412295 54.010331 
z
" clip-path="url(#pb0875b161d)" style="fill: #32cd32; opacity: 0.45"/>
   </g>
   <g id="patch_57">
    <path d="M 897.768505 67.823554 
L 902.413389 67.823554 
L 902.413389 54.010331 
L 897.768505 54.010331 
z
" clip-path="url(#pb0875b161d)" style="fill: #32cd32; opacity: 0.45"/>
   </g>
   <g id="patch_58">
    <path d="M 914.164944 67.823554 
L 924.708829 67.823554 
L 924.708829 54.010331 
L 914.164944 54.010331 
z
" clip-path="url(#pb0875b161d)" style="fill: #32cd32; opacity: 0.45"/>
   </g>
   <g id="patch_59">
    <path d="M 974.87357 67.823554 
L 982.584077 67.823554 
L 982.584077 54.010331 
L 974.87357 54.010331 
z
" clip-path="url(#pb0875b161d)" style="fill: #32cd32; opacity: 0.45"/>
   </g>
   <g id="patch_60">
    <path d="M 1098.42747 67.823554 
L 1111.247348 67.823554 
L 1111.247348 54.010331 
L 1098.42747 54.010331 
z
" clip-path="url(#pb0875b161d)" style="fill: #32cd32; opacity: 0.45"/>
   </g>
   <g id="patch_61">
    <path d="M 1182.314064 67.823554 
L 1232.200112 67.823554 
L 1232.200112 54.010331 
L 1182.314064 54.010331 
z
" clip-path="url(#pb0875b161d)" style="fill: #32cd32; opacity: 0.45"/>
   </g>
   <g id="patch_62">
    <path d="M 1249.061039 67.823554 
L 1263.924666 67.823554 
L 1263.924666 54.010331 
L 1249.061039 54.010331 
z
" clip-path="url(#pb0875b161d)" style="fill: #32cd32; opacity: 0.45"/>
   </g>
   <g id="patch_63">
    <path d="M 39.790023 154.156198 
L 65.168698 154.156198 
L 65.168698 140.342975 
L 39.790023 140.342975 
z
" clip-path="url(#pb0875b161d)" style="fill: #00bfff; opacity: 0.65"/>
   </g>
   <g id="patch_64">
    <path d="M 71.755529 154.156198 
L 85.704114 154.156198 
L 85.704114 140.342975 
L 71.755529 140.342975 
z
" clip-path="url(#pb0875b161d)" style="fill: #00bfff; opacity: 0.65"/>
   </g>
   <g id="patch_65">
    <path d="M 87.835147 154.156198 
L 101.783732 154.156198 
L 101.783732 140.342975 
L 87.835147 140.342975 
z
" clip-path="url(#pb0875b161d)" style="fill: #00bfff; opacity: 0.65"/>
   </g>
   <g id="patch_66">
    <path d="M 111.082788 154.156198 
L 114.763665 154.156198 
L 114.763665 140.342975 
L 111.082788 140.342975 
z
" clip-path="url(#pb0875b161d)" style="fill: #00bfff; opacity: 0.65"/>
   </g>
   <g id="patch_67">
    <path d="M 115.151125 154.156198 
L 221.315352 154.156198 
L 221.315352 140.342975 
L 115.151125 140.342975 
z
" clip-path="url(#pb0875b161d)" style="fill: #00bfff; opacity: 0.65"/>
   </g>
   <g id="patch_68">
    <path d="M 267.423173 154.156198 
L 280.403106 154.156198 
L 280.403106 140.342975 
L 267.423173 140.342975 
z
" clip-path="url(#pb0875b161d)" style="fill: #00bfff; opacity: 0.65"/>
   </g>
   <g id="patch_69">
    <path d="M 316.630679 154.156198 
L 336.972365 154.156198 
L 336.972365 140.342975 
L 316.630679 140.342975 
z
" clip-path="url(#pb0875b161d)" style="fill: #00bfff; opacity: 0.65"/>
   </g>
   <g id="patch_70">
    <path d="M 360.413736 154.156198 
L 375.330973 154.156198 
L 375.330973 140.342975 
L 360.413736 140.342975 
z
" clip-path="url(#pb0875b161d)" style="fill: #00bfff; opacity: 0.65"/>
   </g>
   <g id="patch_71">
    <path d="M 385.598681 154.156198 
L 406.327827 154.156198 
L 406.327827 140.342975 
L 385.598681 140.342975 
z
" clip-path="url(#pb0875b161d)" style="fill: #00bfff; opacity: 0.65"/>
   </g>
   <g id="patch_72">
    <path d="M 563.249403 154.156198 
L 580.685134 154.156198 
L 580.685134 140.342975 
L 563.249403 140.342975 
z
" clip-path="url(#pb0875b161d)" style="fill: #00bfff; opacity: 0.65"/>
   </g>
   <g id="patch_73">
    <path d="M 583.397358 154.156198 
L 586.690774 154.156198 
L 586.690774 140.342975 
L 583.397358 140.342975 
z
" clip-path="url(#pb0875b161d)" style="fill: #00bfff; opacity: 0.65"/>
   </g>
   <g id="patch_74">
    <path d="M 612.069449 154.156198 
L 627.761606 154.156198 
L 627.761606 140.342975 
L 612.069449 140.342975 
z
" clip-path="url(#pb0875b161d)" style="fill: #00bfff; opacity: 0.65"/>
   </g>
   <g id="patch_75">
    <path d="M 634.735899 154.156198 
L 641.516461 154.156198 
L 641.516461 140.342975 
L 634.735899 140.342975 
z
" clip-path="url(#pb0875b161d)" style="fill: #00bfff; opacity: 0.65"/>
   </g>
   <g id="patch_76">
    <path d="M 650.815517 154.156198 
L 688.399203 154.156198 
L 688.399203 140.342975 
L 650.815517 140.342975 
z
" clip-path="url(#pb0875b161d)" style="fill: #00bfff; opacity: 0.65"/>
   </g>
   <g id="patch_77">
    <path d="M 699.248102 154.156198 
L 726.176619 154.156198 
L 726.176619 140.342975 
L 699.248102 140.342975 
z
" clip-path="url(#pb0875b161d)" style="fill: #00bfff; opacity: 0.65"/>
   </g>
   <g id="patch_78">
    <path d="M 743.41862 154.156198 
L 773.059362 154.156198 
L 773.059362 140.342975 
L 743.41862 140.342975 
z
" clip-path="url(#pb0875b161d)" style="fill: #00bfff; opacity: 0.65"/>
   </g>
   <g id="patch_79">
    <path d="M 792.238665 154.156198 
L 808.512014 154.156198 
L 808.512014 140.342975 
L 792.238665 140.342975 
z
" clip-path="url(#pb0875b161d)" style="fill: #00bfff; opacity: 0.65"/>
   </g>
   <g id="patch_80">
    <path d="M 809.093205 154.156198 
L 824.010441 154.156198 
L 824.010441 140.342975 
L 809.093205 140.342975 
z
" clip-path="url(#pb0875b161d)" style="fill: #00bfff; opacity: 0.65"/>
   </g>
   <g id="patch_81">
    <path d="M 834.47188 154.156198 
L 839.508869 154.156198 
L 839.508869 140.342975 
L 834.47188 140.342975 
z
" clip-path="url(#pb0875b161d)" style="fill: #00bfff; opacity: 0.65"/>
   </g>
   <g id="patch_82">
    <path d="M 840.09006 154.156198 
L 862.562779 154.156198 
L 862.562779 140.342975 
L 840.09006 140.342975 
z
" clip-path="url(#pb0875b161d)" style="fill: #00bfff; opacity: 0.65"/>
   </g>
   <g id="patch_83">
    <path d="M 863.3377 154.156198 
L 865.468734 154.156198 
L 865.468734 140.342975 
L 863.3377 140.342975 
z
" clip-path="url(#pb0875b161d)" style="fill: #00bfff; opacity: 0.65"/>
   </g>
   <g id="patch_84">
    <path d="M 884.454308 154.156198 
L 892.978443 154.156198 
L 892.978443 140.342975 
L 884.454308 140.342975 
z
" clip-path="url(#pb0875b161d)" style="fill: #00bfff; opacity: 0.65"/>
   </g>
   <g id="patch_85">
    <path d="M 904.214802 154.156198 
L 906.152106 154.156198 
L 906.152106 140.342975 
L 904.214802 140.342975 
z
" clip-path="url(#pb0875b161d)" style="fill: #00bfff; opacity: 0.65"/>
   </g>
   <g id="patch_86">
    <path d="M 924.750218 154.156198 
L 961.752713 154.156198 
L 961.752713 140.342975 
L 924.750218 140.342975 
z
" clip-path="url(#pb0875b161d)" style="fill: #00bfff; opacity: 0.65"/>
   </g>
   <g id="patch_87">
    <path d="M 971.05177 154.156198 
L 974.926377 154.156198 
L 974.926377 140.342975 
L 971.05177 140.342975 
z
" clip-path="url(#pb0875b161d)" style="fill: #00bfff; opacity: 0.65"/>
   </g>
   <g id="patch_88">
    <path d="M 982.67559 154.156198 
L 990.812264 154.156198 
L 990.812264 140.342975 
L 982.67559 140.342975 
z
" clip-path="url(#pb0875b161d)" style="fill: #00bfff; opacity: 0.65"/>
   </g>
   <g id="patch_89">
    <path d="M 1006.698152 154.156198 
L 1063.267412 154.156198 
L 1063.267412 140.342975 
L 1006.698152 140.342975 
z
" clip-path="url(#pb0875b161d)" style="fill: #00bfff; opacity: 0.65"/>
   </g>
   <g id="patch_90">
    <path d="M 1072.566468 154.156198 
L 1086.321322 154.156198 
L 1086.321322 140.342975 
L 1072.566468 140.342975 
z
" clip-path="url(#pb0875b161d)" style="fill: #00bfff; opacity: 0.65"/>
   </g>
   <g id="patch_91">
    <path d="M 1125.842312 154.156198 
L 1130.49184 154.156198 
L 1130.49184 140.342975 
L 1125.842312 140.342975 
z
" clip-path="url(#pb0875b161d)" style="fill: #00bfff; opacity: 0.65"/>
   </g>
   <g id="patch_92">
    <path d="M 1130.879301 154.156198 
L 1134.172716 154.156198 
L 1134.172716 140.342975 
L 1130.879301 140.342975 
z
" clip-path="url(#pb0875b161d)" style="fill: #00bfff; opacity: 0.65"/>
   </g>
   <g id="patch_93">
    <path d="M 1137.272402 154.156198 
L 1138.628514 154.156198 
L 1138.628514 140.342975 
L 1137.272402 140.342975 
z
" clip-path="url(#pb0875b161d)" style="fill: #00bfff; opacity: 0.65"/>
   </g>
   <g id="patch_94">
    <path d="M 1139.015975 154.156198 
L 1143.471773 154.156198 
L 1143.471773 140.342975 
L 1139.015975 140.342975 
z
" clip-path="url(#pb0875b161d)" style="fill: #00bfff; opacity: 0.65"/>
   </g>
   <g id="patch_95">
    <path d="M 1144.440424 154.156198 
L 1182.217841 154.156198 
L 1182.217841 140.342975 
L 1144.440424 140.342975 
z
" clip-path="url(#pb0875b161d)" style="fill: #00bfff; opacity: 0.65"/>
   </g>
   <g id="patch_96">
    <path d="M 1193.26047 154.156198 
L 1225.807168 154.156198 
L 1225.807168 140.342975 
L 1193.26047 140.342975 
z
" clip-path="url(#pb0875b161d)" style="fill: #00bfff; opacity: 0.65"/>
   </g>
   <g id="patch_97">
    <path d="M 1240.336943 154.156198 
L 1249.248539 154.156198 
L 1249.248539 140.342975 
L 1240.336943 140.342975 
z
" clip-path="url(#pb0875b161d)" style="fill: #00bfff; opacity: 0.65"/>
   </g>
   <g id="patch_98">
    <path d="M 1265.328157 154.156198 
L 1284.12 154.156198 
L 1284.12 140.342975 
L 1265.328157 140.342975 
z
" clip-path="url(#pb0875b161d)" style="fill: #00bfff; opacity: 0.65"/>
   </g>
   <g id="patch_99">
    <path d="M 39.596293 102.356612 
L 64.006315 102.356612 
L 64.006315 88.543388 
L 39.596293 88.543388 
z
" clip-path="url(#pb0875b161d)" style="fill: #ee82ee; opacity: 0.65"/>
   </g>
   <g id="patch_100">
    <path d="M 68.462113 102.356612 
L 88.803799 102.356612 
L 88.803799 88.543388 
L 68.462113 88.543388 
z
" clip-path="url(#pb0875b161d)" style="fill: #ee82ee; opacity: 0.65"/>
   </g>
   <g id="patch_101">
    <path d="M 101.590002 102.356612 
L 152.541081 102.356612 
L 152.541081 88.543388 
L 101.590002 88.543388 
z
" clip-path="url(#pb0875b161d)" style="fill: #ee82ee; opacity: 0.65"/>
   </g>
   <g id="patch_102">
    <path d="M 152.734811 102.356612 
L 183.925396 102.356612 
L 183.925396 88.543388 
L 152.734811 88.543388 
z
" clip-path="url(#pb0875b161d)" style="fill: #ee82ee; opacity: 0.65"/>
   </g>
   <g id="patch_103">
    <path d="M 221.315352 102.356612 
L 267.616903 102.356612 
L 267.616903 88.543388 
L 221.315352 88.543388 
z
" clip-path="url(#pb0875b161d)" style="fill: #ee82ee; opacity: 0.65"/>
   </g>
   <g id="patch_104">
    <path d="M 280.403106 102.356612 
L 281.952949 102.356612 
L 281.952949 88.543388 
L 280.403106 88.543388 
z
" clip-path="url(#pb0875b161d)" style="fill: #ee82ee; opacity: 0.65"/>
   </g>
   <g id="patch_105">
    <path d="M 282.146679 102.356612 
L 316.82441 102.356612 
L 316.82441 88.543388 
L 282.146679 88.543388 
z
" clip-path="url(#pb0875b161d)" style="fill: #ee82ee; opacity: 0.65"/>
   </g>
   <g id="patch_106">
    <path d="M 359.251354 102.356612 
L 375.137242 102.356612 
L 375.137242 88.543388 
L 359.251354 88.543388 
z
" clip-path="url(#pb0875b161d)" style="fill: #ee82ee; opacity: 0.65"/>
   </g>
   <g id="patch_107">
    <path d="M 594.633718 102.356612 
L 595.7961 102.356612 
L 595.7961 88.543388 
L 594.633718 88.543388 
z
" clip-path="url(#pb0875b161d)" style="fill: #ee82ee; opacity: 0.65"/>
   </g>
   <g id="patch_108">
    <path d="M 596.377291 102.356612 
L 603.157853 102.356612 
L 603.157853 88.543388 
L 596.377291 88.543388 
z
" clip-path="url(#pb0875b161d)" style="fill: #ee82ee; opacity: 0.65"/>
   </g>
   <g id="patch_109">
    <path d="M 603.351583 102.356612 
L 612.069449 102.356612 
L 612.069449 88.543388 
L 603.351583 88.543388 
z
" clip-path="url(#pb0875b161d)" style="fill: #ee82ee; opacity: 0.65"/>
   </g>
   <g id="patch_110">
    <path d="M 634.542168 102.356612 
L 642.291382 102.356612 
L 642.291382 88.543388 
L 634.542168 88.543388 
z
" clip-path="url(#pb0875b161d)" style="fill: #ee82ee; opacity: 0.65"/>
   </g>
   <g id="patch_111">
    <path d="M 823.816711 102.356612 
L 834.47188 102.356612 
L 834.47188 88.543388 
L 823.816711 88.543388 
z
" clip-path="url(#pb0875b161d)" style="fill: #ee82ee; opacity: 0.65"/>
   </g>
   <g id="patch_112">
    <path d="M 869.924532 102.356612 
L 882.710734 102.356612 
L 882.710734 88.543388 
L 869.924532 88.543388 
z
" clip-path="url(#pb0875b161d)" style="fill: #ee82ee; opacity: 0.65"/>
   </g>
   <g id="patch_113">
    <path d="M 908.86433 102.356612 
L 911.576555 102.356612 
L 911.576555 88.543388 
L 908.86433 88.543388 
z
" clip-path="url(#pb0875b161d)" style="fill: #ee82ee; opacity: 0.65"/>
   </g>
   <g id="patch_114">
    <path d="M 962.333904 102.356612 
L 971.05177 102.356612 
L 971.05177 88.543388 
L 962.333904 88.543388 
z
" clip-path="url(#pb0875b161d)" style="fill: #ee82ee; opacity: 0.65"/>
   </g>
   <g id="patch_115">
    <path d="M 1063.073681 102.356612 
L 1072.566468 102.356612 
L 1072.566468 88.543388 
L 1063.073681 88.543388 
z
" clip-path="url(#pb0875b161d)" style="fill: #ee82ee; opacity: 0.65"/>
   </g>
   <g id="patch_116">
    <path d="M 1086.321322 102.356612 
L 1098.526334 102.356612 
L 1098.526334 88.543388 
L 1086.321322 88.543388 
z
" clip-path="url(#pb0875b161d)" style="fill: #ee82ee; opacity: 0.65"/>
   </g>
   <g id="patch_117">
    <path d="M 1232.393999 102.356612 
L 1240.530673 102.356612 
L 1240.530673 88.543388 
L 1232.393999 88.543388 
z
" clip-path="url(#pb0875b161d)" style="fill: #ee82ee; opacity: 0.65"/>
   </g>
   <g id="patch_118">
    <path d="M 375.137242 50.557025 
L 385.792411 50.557025 
L 385.792411 36.743802 
L 375.137242 36.743802 
z
" clip-path="url(#pb0875b161d)" style="fill: #32cd32; opacity: 0.65"/>
   </g>
   <g id="patch_119">
    <path d="M 406.327827 50.557025 
L 430.54412 50.557025 
L 430.54412 36.743802 
L 406.327827 36.743802 
z
" clip-path="url(#pb0875b161d)" style="fill: #32cd32; opacity: 0.65"/>
   </g>
   <g id="patch_120">
    <path d="M 451.466996 50.557025 
L 457.666367 50.557025 
L 457.666367 36.743802 
L 451.466996 36.743802 
z
" clip-path="url(#pb0875b161d)" style="fill: #32cd32; opacity: 0.65"/>
   </g>
   <g id="patch_121">
    <path d="M 471.033761 50.557025 
L 476.845671 50.557025 
L 476.845671 36.743802 
L 471.033761 36.743802 
z
" clip-path="url(#pb0875b161d)" style="fill: #32cd32; opacity: 0.65"/>
   </g>
   <g id="patch_122">
    <path d="M 481.88266 50.557025 
L 493.50648 50.557025 
L 493.50648 36.743802 
L 481.88266 36.743802 
z
" clip-path="url(#pb0875b161d)" style="fill: #32cd32; opacity: 0.65"/>
   </g>
   <g id="patch_123">
    <path d="M 555.112729 50.557025 
L 563.249403 50.557025 
L 563.249403 36.743802 
L 555.112729 36.743802 
z
" clip-path="url(#pb0875b161d)" style="fill: #32cd32; opacity: 0.65"/>
   </g>
   <g id="patch_124">
    <path d="M 586.690774 50.557025 
L 591.727763 50.557025 
L 591.727763 36.743802 
L 586.690774 36.743802 
z
" clip-path="url(#pb0875b161d)" style="fill: #32cd32; opacity: 0.65"/>
   </g>
   <g id="patch_125">
    <path d="M 627.761606 50.557025 
L 634.735899 50.557025 
L 634.735899 36.743802 
L 627.761606 36.743802 
z
" clip-path="url(#pb0875b161d)" style="fill: #32cd32; opacity: 0.65"/>
   </g>
   <g id="patch_126">
    <path d="M 640.547809 50.557025 
L 640.93527 50.557025 
L 640.93527 36.743802 
L 640.547809 36.743802 
z
" clip-path="url(#pb0875b161d)" style="fill: #32cd32; opacity: 0.65"/>
   </g>
   <g id="patch_127">
    <path d="M 641.129 50.557025 
L 699.441832 50.557025 
L 699.441832 36.743802 
L 641.129 36.743802 
z
" clip-path="url(#pb0875b161d)" style="fill: #32cd32; opacity: 0.65"/>
   </g>
   <g id="patch_128">
    <path d="M 725.982889 50.557025 
L 743.61235 50.557025 
L 743.61235 36.743802 
L 725.982889 36.743802 
z
" clip-path="url(#pb0875b161d)" style="fill: #32cd32; opacity: 0.65"/>
   </g>
   <g id="patch_129">
    <path d="M 772.865631 50.557025 
L 792.432396 50.557025 
L 792.432396 36.743802 
L 772.865631 36.743802 
z
" clip-path="url(#pb0875b161d)" style="fill: #32cd32; opacity: 0.65"/>
   </g>
   <g id="patch_130">
    <path d="M 865.468734 50.557025 
L 869.730802 50.557025 
L 869.730802 36.743802 
L 865.468734 36.743802 
z
" clip-path="url(#pb0875b161d)" style="fill: #32cd32; opacity: 0.65"/>
   </g>
   <g id="patch_131">
    <path d="M 897.627971 50.557025 
L 902.66496 50.557025 
L 902.66496 36.743802 
L 897.627971 36.743802 
z
" clip-path="url(#pb0875b161d)" style="fill: #32cd32; opacity: 0.65"/>
   </g>
   <g id="patch_132">
    <path d="M 911.576555 50.557025 
L 924.943949 50.557025 
L 924.943949 36.743802 
L 911.576555 36.743802 
z
" clip-path="url(#pb0875b161d)" style="fill: #32cd32; opacity: 0.65"/>
   </g>
   <g id="patch_133">
    <path d="M 974.732646 50.557025 
L 982.869321 50.557025 
L 982.869321 36.743802 
L 974.732646 36.743802 
z
" clip-path="url(#pb0875b161d)" style="fill: #32cd32; opacity: 0.65"/>
   </g>
   <g id="patch_134">
    <path d="M 1098.526334 50.557025 
L 1111.506267 50.557025 
L 1111.506267 36.743802 
L 1098.526334 36.743802 
z
" clip-path="url(#pb0875b161d)" style="fill: #32cd32; opacity: 0.65"/>
   </g>
   <g id="patch_135">
    <path d="M 1182.217841 50.557025 
L 1193.454201 50.557025 
L 1193.454201 36.743802 
L 1182.217841 36.743802 
z
" clip-path="url(#pb0875b161d)" style="fill: #32cd32; opacity: 0.65"/>
   </g>
   <g id="patch_136">
    <path d="M 1225.807168 50.557025 
L 1232.393999 50.557025 
L 1232.393999 36.743802 
L 1225.807168 36.743802 
z
" clip-path="url(#pb0875b161d)" style="fill: #32cd32; opacity: 0.65"/>
   </g>
   <g id="patch_137">
    <path d="M 1249.248539 50.557025 
L 1262.228472 50.557025 
L 1262.228472 36.743802 
L 1249.248539 36.743802 
z
" clip-path="url(#pb0875b161d)" style="fill: #32cd32; opacity: 0.65"/>
   </g>
   <g id="patch_138">
    <path d="M 39.790023 136.889669 
L 39.983753 136.889669 
L 39.983753 123.076446 
L 39.790023 123.076446 
z
" clip-path="url(#pb0875b161d)" style="fill: #00bfff; opacity: 0.85"/>
   </g>
   <g id="patch_139">
    <path d="M 40.177484 136.889669 
L 40.564944 136.889669 
L 40.564944 123.076446 
L 40.177484 123.076446 
z
" clip-path="url(#pb0875b161d)" style="fill: #00bfff; opacity: 0.85"/>
   </g>
   <g id="patch_140">
    <path d="M 41.727326 136.889669 
L 59.163057 136.889669 
L 59.163057 123.076446 
L 41.727326 123.076446 
z
" clip-path="url(#pb0875b161d)" style="fill: #00bfff; opacity: 0.85"/>
   </g>
   <g id="patch_141">
    <path d="M 59.356787 136.889669 
L 64.974967 136.889669 
L 64.974967 123.076446 
L 59.356787 123.076446 
z
" clip-path="url(#pb0875b161d)" style="fill: #00bfff; opacity: 0.85"/>
   </g>
   <g id="patch_142">
    <path d="M 71.755529 136.889669 
L 84.735462 136.889669 
L 84.735462 123.076446 
L 71.755529 123.076446 
z
" clip-path="url(#pb0875b161d)" style="fill: #00bfff; opacity: 0.85"/>
   </g>
   <g id="patch_143">
    <path d="M 84.929192 136.889669 
L 85.510383 136.889669 
L 85.510383 123.076446 
L 84.929192 123.076446 
z
" clip-path="url(#pb0875b161d)" style="fill: #00bfff; opacity: 0.85"/>
   </g>
   <g id="patch_144">
    <path d="M 88.610069 136.889669 
L 97.715395 136.889669 
L 97.715395 123.076446 
L 88.610069 123.076446 
z
" clip-path="url(#pb0875b161d)" style="fill: #00bfff; opacity: 0.85"/>
   </g>
   <g id="patch_145">
    <path d="M 98.102855 136.889669 
L 101.590002 136.889669 
L 101.590002 123.076446 
L 98.102855 123.076446 
z
" clip-path="url(#pb0875b161d)" style="fill: #00bfff; opacity: 0.85"/>
   </g>
   <g id="patch_146">
    <path d="M 123.2878 136.889669 
L 123.48153 136.889669 
L 123.48153 123.076446 
L 123.2878 123.076446 
z
" clip-path="url(#pb0875b161d)" style="fill: #00bfff; opacity: 0.85"/>
   </g>
   <g id="patch_147">
    <path d="M 128.712249 136.889669 
L 129.09971 136.889669 
L 129.09971 123.076446 
L 128.712249 123.076446 
z
" clip-path="url(#pb0875b161d)" style="fill: #00bfff; opacity: 0.85"/>
   </g>
   <g id="patch_148">
    <path d="M 129.29344 136.889669 
L 131.037013 136.889669 
L 131.037013 123.076446 
L 129.29344 123.076446 
z
" clip-path="url(#pb0875b161d)" style="fill: #00bfff; opacity: 0.85"/>
   </g>
   <g id="patch_149">
    <path d="M 131.230744 136.889669 
L 136.267732 136.889669 
L 136.267732 123.076446 
L 131.230744 123.076446 
z
" clip-path="url(#pb0875b161d)" style="fill: #00bfff; opacity: 0.85"/>
   </g>
   <g id="patch_150">
    <path d="M 136.461463 136.889669 
L 136.655193 136.889669 
L 136.655193 123.076446 
L 136.461463 123.076446 
z
" clip-path="url(#pb0875b161d)" style="fill: #00bfff; opacity: 0.85"/>
   </g>
   <g id="patch_151">
    <path d="M 137.042654 136.889669 
L 138.786227 136.889669 
L 138.786227 123.076446 
L 137.042654 123.076446 
z
" clip-path="url(#pb0875b161d)" style="fill: #00bfff; opacity: 0.85"/>
   </g>
   <g id="patch_152">
    <path d="M 183.925396 136.889669 
L 206.591846 136.889669 
L 206.591846 123.076446 
L 183.925396 123.076446 
z
" clip-path="url(#pb0875b161d)" style="fill: #00bfff; opacity: 0.85"/>
   </g>
   <g id="patch_153">
    <path d="M 206.785576 136.889669 
L 206.979307 136.889669 
L 206.979307 123.076446 
L 206.785576 123.076446 
z
" clip-path="url(#pb0875b161d)" style="fill: #00bfff; opacity: 0.85"/>
   </g>
   <g id="patch_154">
    <path d="M 207.173037 136.889669 
L 207.560498 136.889669 
L 207.560498 123.076446 
L 207.173037 123.076446 
z
" clip-path="url(#pb0875b161d)" style="fill: #00bfff; opacity: 0.85"/>
   </g>
   <g id="patch_155">
    <path d="M 207.754228 136.889669 
L 210.078992 136.889669 
L 210.078992 123.076446 
L 207.754228 123.076446 
z
" clip-path="url(#pb0875b161d)" style="fill: #00bfff; opacity: 0.85"/>
   </g>
   <g id="patch_156">
    <path d="M 210.272723 136.889669 
L 211.435105 136.889669 
L 211.435105 123.076446 
L 210.272723 123.076446 
z
" clip-path="url(#pb0875b161d)" style="fill: #00bfff; opacity: 0.85"/>
   </g>
   <g id="patch_157">
    <path d="M 218.215667 136.889669 
L 218.796858 136.889669 
L 218.796858 123.076446 
L 218.215667 123.076446 
z
" clip-path="url(#pb0875b161d)" style="fill: #00bfff; opacity: 0.85"/>
   </g>
   <g id="patch_158">
    <path d="M 267.423173 136.889669 
L 280.209375 136.889669 
L 280.209375 123.076446 
L 267.423173 123.076446 
z
" clip-path="url(#pb0875b161d)" style="fill: #00bfff; opacity: 0.85"/>
   </g>
   <g id="patch_159">
    <path d="M 316.630679 136.889669 
L 336.778635 136.889669 
L 336.778635 123.076446 
L 316.630679 123.076446 
z
" clip-path="url(#pb0875b161d)" style="fill: #00bfff; opacity: 0.85"/>
   </g>
   <g id="patch_160">
    <path d="M 365.644456 136.889669 
L 365.838186 136.889669 
L 365.838186 123.076446 
L 365.644456 123.076446 
z
" clip-path="url(#pb0875b161d)" style="fill: #00bfff; opacity: 0.85"/>
   </g>
   <g id="patch_161">
    <path d="M 366.419377 136.889669 
L 366.613107 136.889669 
L 366.613107 123.076446 
L 366.419377 123.076446 
z
" clip-path="url(#pb0875b161d)" style="fill: #00bfff; opacity: 0.85"/>
   </g>
   <g id="patch_162">
    <path d="M 366.806838 136.889669 
L 367.000568 136.889669 
L 367.000568 123.076446 
L 366.806838 123.076446 
z
" clip-path="url(#pb0875b161d)" style="fill: #00bfff; opacity: 0.85"/>
   </g>
   <g id="patch_163">
    <path d="M 367.96922 136.889669 
L 368.35668 136.889669 
L 368.35668 123.076446 
L 367.96922 123.076446 
z
" clip-path="url(#pb0875b161d)" style="fill: #00bfff; opacity: 0.85"/>
   </g>
   <g id="patch_164">
    <path d="M 371.650096 136.889669 
L 371.843827 136.889669 
L 371.843827 123.076446 
L 371.650096 123.076446 
z
" clip-path="url(#pb0875b161d)" style="fill: #00bfff; opacity: 0.85"/>
   </g>
   <g id="patch_165">
    <path d="M 372.618748 136.889669 
L 373.393669 136.889669 
L 373.393669 123.076446 
L 372.618748 123.076446 
z
" clip-path="url(#pb0875b161d)" style="fill: #00bfff; opacity: 0.85"/>
   </g>
   <g id="patch_166">
    <path d="M 373.5874 136.889669 
L 373.97486 136.889669 
L 373.97486 123.076446 
L 373.5874 123.076446 
z
" clip-path="url(#pb0875b161d)" style="fill: #00bfff; opacity: 0.85"/>
   </g>
   <g id="patch_167">
    <path d="M 374.362321 136.889669 
L 374.556051 136.889669 
L 374.556051 123.076446 
L 374.362321 123.076446 
z
" clip-path="url(#pb0875b161d)" style="fill: #00bfff; opacity: 0.85"/>
   </g>
   <g id="patch_168">
    <path d="M 374.749782 136.889669 
L 375.137242 136.889669 
L 375.137242 123.076446 
L 374.749782 123.076446 
z
" clip-path="url(#pb0875b161d)" style="fill: #00bfff; opacity: 0.85"/>
   </g>
   <g id="patch_169">
    <path d="M 385.598681 136.889669 
L 406.134097 136.889669 
L 406.134097 123.076446 
L 385.598681 123.076446 
z
" clip-path="url(#pb0875b161d)" style="fill: #00bfff; opacity: 0.85"/>
   </g>
   <g id="patch_170">
    <path d="M 567.705201 136.889669 
L 569.061313 136.889669 
L 569.061313 123.076446 
L 567.705201 123.076446 
z
" clip-path="url(#pb0875b161d)" style="fill: #00bfff; opacity: 0.85"/>
   </g>
   <g id="patch_171">
    <path d="M 573.710841 136.889669 
L 573.904572 136.889669 
L 573.904572 123.076446 
L 573.710841 123.076446 
z
" clip-path="url(#pb0875b161d)" style="fill: #00bfff; opacity: 0.85"/>
   </g>
   <g id="patch_172">
    <path d="M 577.972909 136.889669 
L 578.941561 136.889669 
L 578.941561 123.076446 
L 577.972909 123.076446 
z
" clip-path="url(#pb0875b161d)" style="fill: #00bfff; opacity: 0.85"/>
   </g>
   <g id="patch_173">
    <path d="M 586.109583 136.889669 
L 586.303313 136.889669 
L 586.303313 123.076446 
L 586.109583 123.076446 
z
" clip-path="url(#pb0875b161d)" style="fill: #00bfff; opacity: 0.85"/>
   </g>
   <g id="patch_174">
    <path d="M 613.231831 136.889669 
L 614.006752 136.889669 
L 614.006752 123.076446 
L 613.231831 123.076446 
z
" clip-path="url(#pb0875b161d)" style="fill: #00bfff; opacity: 0.85"/>
   </g>
   <g id="patch_175">
    <path d="M 614.394213 136.889669 
L 618.65628 136.889669 
L 618.65628 123.076446 
L 614.394213 123.076446 
z
" clip-path="url(#pb0875b161d)" style="fill: #00bfff; opacity: 0.85"/>
   </g>
   <g id="patch_176">
    <path d="M 618.850011 136.889669 
L 619.624932 136.889669 
L 619.624932 123.076446 
L 618.850011 123.076446 
z
" clip-path="url(#pb0875b161d)" style="fill: #00bfff; opacity: 0.85"/>
   </g>
   <g id="patch_177">
    <path d="M 619.818662 136.889669 
L 620.206123 136.889669 
L 620.206123 123.076446 
L 619.818662 123.076446 
z
" clip-path="url(#pb0875b161d)" style="fill: #00bfff; opacity: 0.85"/>
   </g>
   <g id="patch_178">
    <path d="M 620.787314 136.889669 
L 622.530887 136.889669 
L 622.530887 123.076446 
L 620.787314 123.076446 
z
" clip-path="url(#pb0875b161d)" style="fill: #00bfff; opacity: 0.85"/>
   </g>
   <g id="patch_179">
    <path d="M 623.112078 136.889669 
L 627.567876 136.889669 
L 627.567876 123.076446 
L 623.112078 123.076446 
z
" clip-path="url(#pb0875b161d)" style="fill: #00bfff; opacity: 0.85"/>
   </g>
   <g id="patch_180">
    <path d="M 637.060663 136.889669 
L 638.029314 136.889669 
L 638.029314 123.076446 
L 637.060663 123.076446 
z
" clip-path="url(#pb0875b161d)" style="fill: #00bfff; opacity: 0.85"/>
   </g>
   <g id="patch_181">
    <path d="M 638.416775 136.889669 
L 638.610505 136.889669 
L 638.610505 123.076446 
L 638.416775 123.076446 
z
" clip-path="url(#pb0875b161d)" style="fill: #00bfff; opacity: 0.85"/>
   </g>
   <g id="patch_182">
    <path d="M 659.145922 136.889669 
L 659.339652 136.889669 
L 659.339652 123.076446 
L 659.145922 123.076446 
z
" clip-path="url(#pb0875b161d)" style="fill: #00bfff; opacity: 0.85"/>
   </g>
   <g id="patch_183">
    <path d="M 670.576012 136.889669 
L 671.350933 136.889669 
L 671.350933 123.076446 
L 670.576012 123.076446 
z
" clip-path="url(#pb0875b161d)" style="fill: #00bfff; opacity: 0.85"/>
   </g>
   <g id="patch_184">
    <path d="M 672.125854 136.889669 
L 672.319585 136.889669 
L 672.319585 123.076446 
L 672.125854 123.076446 
z
" clip-path="url(#pb0875b161d)" style="fill: #00bfff; opacity: 0.85"/>
   </g>
   <g id="patch_185">
    <path d="M 672.513315 136.889669 
L 673.675697 136.889669 
L 673.675697 123.076446 
L 672.513315 123.076446 
z
" clip-path="url(#pb0875b161d)" style="fill: #00bfff; opacity: 0.85"/>
   </g>
   <g id="patch_186">
    <path d="M 674.256888 136.889669 
L 675.031809 136.889669 
L 675.031809 123.076446 
L 674.256888 123.076446 
z
" clip-path="url(#pb0875b161d)" style="fill: #00bfff; opacity: 0.85"/>
   </g>
   <g id="patch_187">
    <path d="M 699.248102 136.889669 
L 700.023023 136.889669 
L 700.023023 123.076446 
L 699.248102 123.076446 
z
" clip-path="url(#pb0875b161d)" style="fill: #00bfff; opacity: 0.85"/>
   </g>
   <g id="patch_188">
    <path d="M 700.216754 136.889669 
L 701.766596 136.889669 
L 701.766596 123.076446 
L 700.216754 123.076446 
z
" clip-path="url(#pb0875b161d)" style="fill: #00bfff; opacity: 0.85"/>
   </g>
   <g id="patch_189">
    <path d="M 701.960327 136.889669 
L 703.122709 136.889669 
L 703.122709 123.076446 
L 701.960327 123.076446 
z
" clip-path="url(#pb0875b161d)" style="fill: #00bfff; opacity: 0.85"/>
   </g>
   <g id="patch_190">
    <path d="M 704.478821 136.889669 
L 705.447473 136.889669 
L 705.447473 123.076446 
L 704.478821 123.076446 
z
" clip-path="url(#pb0875b161d)" style="fill: #00bfff; opacity: 0.85"/>
   </g>
   <g id="patch_191">
    <path d="M 706.416125 136.889669 
L 706.609855 136.889669 
L 706.609855 123.076446 
L 706.416125 123.076446 
z
" clip-path="url(#pb0875b161d)" style="fill: #00bfff; opacity: 0.85"/>
   </g>
   <g id="patch_192">
    <path d="M 706.803585 136.889669 
L 707.191046 136.889669 
L 707.191046 123.076446 
L 706.803585 123.076446 
z
" clip-path="url(#pb0875b161d)" style="fill: #00bfff; opacity: 0.85"/>
   </g>
   <g id="patch_193">
    <path d="M 707.578507 136.889669 
L 707.772237 136.889669 
L 707.772237 123.076446 
L 707.578507 123.076446 
z
" clip-path="url(#pb0875b161d)" style="fill: #00bfff; opacity: 0.85"/>
   </g>
   <g id="patch_194">
    <path d="M 707.965967 136.889669 
L 708.934619 136.889669 
L 708.934619 123.076446 
L 707.965967 123.076446 
z
" clip-path="url(#pb0875b161d)" style="fill: #00bfff; opacity: 0.85"/>
   </g>
   <g id="patch_195">
    <path d="M 710.097001 136.889669 
L 710.290731 136.889669 
L 710.290731 123.076446 
L 710.097001 123.076446 
z
" clip-path="url(#pb0875b161d)" style="fill: #00bfff; opacity: 0.85"/>
   </g>
   <g id="patch_196">
    <path d="M 713.777878 136.889669 
L 713.971608 136.889669 
L 713.971608 123.076446 
L 713.777878 123.076446 
z
" clip-path="url(#pb0875b161d)" style="fill: #00bfff; opacity: 0.85"/>
   </g>
   <g id="patch_197">
    <path d="M 714.746529 136.889669 
L 714.94026 136.889669 
L 714.94026 123.076446 
L 714.746529 123.076446 
z
" clip-path="url(#pb0875b161d)" style="fill: #00bfff; opacity: 0.85"/>
   </g>
   <g id="patch_198">
    <path d="M 716.296372 136.889669 
L 719.202327 136.889669 
L 719.202327 123.076446 
L 716.296372 123.076446 
z
" clip-path="url(#pb0875b161d)" style="fill: #00bfff; opacity: 0.85"/>
   </g>
   <g id="patch_199">
    <path d="M 719.589788 136.889669 
L 725.982889 136.889669 
L 725.982889 123.076446 
L 719.589788 123.076446 
z
" clip-path="url(#pb0875b161d)" style="fill: #00bfff; opacity: 0.85"/>
   </g>
   <g id="patch_200">
    <path d="M 743.41862 136.889669 
L 755.817361 136.889669 
L 755.817361 123.076446 
L 743.41862 123.076446 
z
" clip-path="url(#pb0875b161d)" style="fill: #00bfff; opacity: 0.85"/>
   </g>
   <g id="patch_201">
    <path d="M 758.917047 136.889669 
L 760.079429 136.889669 
L 760.079429 123.076446 
L 758.917047 123.076446 
z
" clip-path="url(#pb0875b161d)" style="fill: #00bfff; opacity: 0.85"/>
   </g>
   <g id="patch_202">
    <path d="M 761.823002 136.889669 
L 762.791654 136.889669 
L 762.791654 123.076446 
L 761.823002 123.076446 
z
" clip-path="url(#pb0875b161d)" style="fill: #00bfff; opacity: 0.85"/>
   </g>
   <g id="patch_203">
    <path d="M 763.954036 136.889669 
L 764.341496 136.889669 
L 764.341496 123.076446 
L 763.954036 123.076446 
z
" clip-path="url(#pb0875b161d)" style="fill: #00bfff; opacity: 0.85"/>
   </g>
   <g id="patch_204">
    <path d="M 765.116418 136.889669 
L 772.865631 136.889669 
L 772.865631 123.076446 
L 765.116418 123.076446 
z
" clip-path="url(#pb0875b161d)" style="fill: #00bfff; opacity: 0.85"/>
   </g>
   <g id="patch_205">
    <path d="M 792.238665 136.889669 
L 807.155902 136.889669 
L 807.155902 123.076446 
L 792.238665 123.076446 
z
" clip-path="url(#pb0875b161d)" style="fill: #00bfff; opacity: 0.85"/>
   </g>
   <g id="patch_206">
    <path d="M 807.349632 136.889669 
L 807.737093 136.889669 
L 807.737093 123.076446 
L 807.349632 123.076446 
z
" clip-path="url(#pb0875b161d)" style="fill: #00bfff; opacity: 0.85"/>
   </g>
   <g id="patch_207">
    <path d="M 809.674396 136.889669 
L 818.004801 136.889669 
L 818.004801 123.076446 
L 809.674396 123.076446 
z
" clip-path="url(#pb0875b161d)" style="fill: #00bfff; opacity: 0.85"/>
   </g>
   <g id="patch_208">
    <path d="M 818.198531 136.889669 
L 823.816711 136.889669 
L 823.816711 123.076446 
L 818.198531 123.076446 
z
" clip-path="url(#pb0875b161d)" style="fill: #00bfff; opacity: 0.85"/>
   </g>
   <g id="patch_209">
    <path d="M 846.676891 136.889669 
L 847.064352 136.889669 
L 847.064352 123.076446 
L 846.676891 123.076446 
z
" clip-path="url(#pb0875b161d)" style="fill: #00bfff; opacity: 0.85"/>
   </g>
   <g id="patch_210">
    <path d="M 847.451812 136.889669 
L 847.839273 136.889669 
L 847.839273 123.076446 
L 847.451812 123.076446 
z
" clip-path="url(#pb0875b161d)" style="fill: #00bfff; opacity: 0.85"/>
   </g>
   <g id="patch_211">
    <path d="M 848.226734 136.889669 
L 848.614195 136.889669 
L 848.614195 123.076446 
L 848.226734 123.076446 
z
" clip-path="url(#pb0875b161d)" style="fill: #00bfff; opacity: 0.85"/>
   </g>
   <g id="patch_212">
    <path d="M 848.807925 136.889669 
L 849.001655 136.889669 
L 849.001655 123.076446 
L 848.807925 123.076446 
z
" clip-path="url(#pb0875b161d)" style="fill: #00bfff; opacity: 0.85"/>
   </g>
   <g id="patch_213">
    <path d="M 861.981588 136.889669 
L 862.562779 136.889669 
L 862.562779 123.076446 
L 861.981588 123.076446 
z
" clip-path="url(#pb0875b161d)" style="fill: #00bfff; opacity: 0.85"/>
   </g>
   <g id="patch_214">
    <path d="M 864.306352 136.889669 
L 865.275004 136.889669 
L 865.275004 123.076446 
L 864.306352 123.076446 
z
" clip-path="url(#pb0875b161d)" style="fill: #00bfff; opacity: 0.85"/>
   </g>
   <g id="patch_215">
    <path d="M 885.81042 136.889669 
L 886.00415 136.889669 
L 886.00415 123.076446 
L 885.81042 123.076446 
z
" clip-path="url(#pb0875b161d)" style="fill: #00bfff; opacity: 0.85"/>
   </g>
   <g id="patch_216">
    <path d="M 887.747723 136.889669 
L 887.941454 136.889669 
L 887.941454 123.076446 
L 887.747723 123.076446 
z
" clip-path="url(#pb0875b161d)" style="fill: #00bfff; opacity: 0.85"/>
   </g>
   <g id="patch_217">
    <path d="M 888.328914 136.889669 
L 888.522645 136.889669 
L 888.522645 123.076446 
L 888.328914 123.076446 
z
" clip-path="url(#pb0875b161d)" style="fill: #00bfff; opacity: 0.85"/>
   </g>
   <g id="patch_218">
    <path d="M 888.910105 136.889669 
L 889.103836 136.889669 
L 889.103836 123.076446 
L 888.910105 123.076446 
z
" clip-path="url(#pb0875b161d)" style="fill: #00bfff; opacity: 0.85"/>
   </g>
   <g id="patch_219">
    <path d="M 889.297566 136.889669 
L 890.266218 136.889669 
L 890.266218 123.076446 
L 889.297566 123.076446 
z
" clip-path="url(#pb0875b161d)" style="fill: #00bfff; opacity: 0.85"/>
   </g>
   <g id="patch_220">
    <path d="M 890.847409 136.889669 
L 891.234869 136.889669 
L 891.234869 123.076446 
L 890.847409 123.076446 
z
" clip-path="url(#pb0875b161d)" style="fill: #00bfff; opacity: 0.85"/>
   </g>
   <g id="patch_221">
    <path d="M 891.62233 136.889669 
L 891.81606 136.889669 
L 891.81606 123.076446 
L 891.62233 123.076446 
z
" clip-path="url(#pb0875b161d)" style="fill: #00bfff; opacity: 0.85"/>
   </g>
   <g id="patch_222">
    <path d="M 892.590982 136.889669 
L 892.978443 136.889669 
L 892.978443 123.076446 
L 892.590982 123.076446 
z
" clip-path="url(#pb0875b161d)" style="fill: #00bfff; opacity: 0.85"/>
   </g>
   <g id="patch_223">
    <path d="M 904.214802 136.889669 
L 905.958375 136.889669 
L 905.958375 123.076446 
L 904.214802 123.076446 
z
" clip-path="url(#pb0875b161d)" style="fill: #00bfff; opacity: 0.85"/>
   </g>
   <g id="patch_224">
    <path d="M 924.750218 136.889669 
L 945.091904 136.889669 
L 945.091904 123.076446 
L 924.750218 123.076446 
z
" clip-path="url(#pb0875b161d)" style="fill: #00bfff; opacity: 0.85"/>
   </g>
   <g id="patch_225">
    <path d="M 945.285634 136.889669 
L 953.616039 136.889669 
L 953.616039 123.076446 
L 945.285634 123.076446 
z
" clip-path="url(#pb0875b161d)" style="fill: #00bfff; opacity: 0.85"/>
   </g>
   <g id="patch_226">
    <path d="M 954.0035 136.889669 
L 956.715725 136.889669 
L 956.715725 123.076446 
L 954.0035 123.076446 
z
" clip-path="url(#pb0875b161d)" style="fill: #00bfff; opacity: 0.85"/>
   </g>
   <g id="patch_227">
    <path d="M 957.296916 136.889669 
L 959.81541 136.889669 
L 959.81541 123.076446 
L 957.296916 123.076446 
z
" clip-path="url(#pb0875b161d)" style="fill: #00bfff; opacity: 0.85"/>
   </g>
   <g id="patch_228">
    <path d="M 960.784062 136.889669 
L 961.558983 136.889669 
L 961.558983 123.076446 
L 960.784062 123.076446 
z
" clip-path="url(#pb0875b161d)" style="fill: #00bfff; opacity: 0.85"/>
   </g>
   <g id="patch_229">
    <path d="M 971.05177 136.889669 
L 974.732646 136.889669 
L 974.732646 123.076446 
L 971.05177 123.076446 
z
" clip-path="url(#pb0875b161d)" style="fill: #00bfff; opacity: 0.85"/>
   </g>
   <g id="patch_230">
    <path d="M 982.67559 136.889669 
L 988.681231 136.889669 
L 988.681231 123.076446 
L 982.67559 123.076446 
z
" clip-path="url(#pb0875b161d)" style="fill: #00bfff; opacity: 0.85"/>
   </g>
   <g id="patch_231">
    <path d="M 1017.159591 136.889669 
L 1026.846108 136.889669 
L 1026.846108 123.076446 
L 1017.159591 123.076446 
z
" clip-path="url(#pb0875b161d)" style="fill: #00bfff; opacity: 0.85"/>
   </g>
   <g id="patch_232">
    <path d="M 1027.039838 136.889669 
L 1030.914445 136.889669 
L 1030.914445 123.076446 
L 1027.039838 123.076446 
z
" clip-path="url(#pb0875b161d)" style="fill: #00bfff; opacity: 0.85"/>
   </g>
   <g id="patch_233">
    <path d="M 1031.108175 136.889669 
L 1044.863029 136.889669 
L 1044.863029 123.076446 
L 1031.108175 123.076446 
z
" clip-path="url(#pb0875b161d)" style="fill: #00bfff; opacity: 0.85"/>
   </g>
   <g id="patch_234">
    <path d="M 1045.25049 136.889669 
L 1045.637951 136.889669 
L 1045.637951 123.076446 
L 1045.25049 123.076446 
z
" clip-path="url(#pb0875b161d)" style="fill: #00bfff; opacity: 0.85"/>
   </g>
   <g id="patch_235">
    <path d="M 1045.831681 136.889669 
L 1051.449861 136.889669 
L 1051.449861 123.076446 
L 1045.831681 123.076446 
z
" clip-path="url(#pb0875b161d)" style="fill: #00bfff; opacity: 0.85"/>
   </g>
   <g id="patch_236">
    <path d="M 1058.424153 136.889669 
L 1063.073681 136.889669 
L 1063.073681 123.076446 
L 1058.424153 123.076446 
z
" clip-path="url(#pb0875b161d)" style="fill: #00bfff; opacity: 0.85"/>
   </g>
   <g id="patch_237">
    <path d="M 1073.34139 136.889669 
L 1073.72885 136.889669 
L 1073.72885 123.076446 
L 1073.34139 123.076446 
z
" clip-path="url(#pb0875b161d)" style="fill: #00bfff; opacity: 0.85"/>
   </g>
   <g id="patch_238">
    <path d="M 1074.310041 136.889669 
L 1074.697502 136.889669 
L 1074.697502 123.076446 
L 1074.310041 123.076446 
z
" clip-path="url(#pb0875b161d)" style="fill: #00bfff; opacity: 0.85"/>
   </g>
   <g id="patch_239">
    <path d="M 1077.215996 136.889669 
L 1086.127592 136.889669 
L 1086.127592 123.076446 
L 1077.215996 123.076446 
z
" clip-path="url(#pb0875b161d)" style="fill: #00bfff; opacity: 0.85"/>
   </g>
   <g id="patch_240">
    <path d="M 1126.423503 136.889669 
L 1127.004694 136.889669 
L 1127.004694 123.076446 
L 1126.423503 123.076446 
z
" clip-path="url(#pb0875b161d)" style="fill: #00bfff; opacity: 0.85"/>
   </g>
   <g id="patch_241">
    <path d="M 1127.198424 136.889669 
L 1127.585885 136.889669 
L 1127.585885 123.076446 
L 1127.198424 123.076446 
z
" clip-path="url(#pb0875b161d)" style="fill: #00bfff; opacity: 0.85"/>
   </g>
   <g id="patch_242">
    <path d="M 1128.554537 136.889669 
L 1128.941997 136.889669 
L 1128.941997 123.076446 
L 1128.554537 123.076446 
z
" clip-path="url(#pb0875b161d)" style="fill: #00bfff; opacity: 0.85"/>
   </g>
   <g id="patch_243">
    <path d="M 1129.329458 136.889669 
L 1130.104379 136.889669 
L 1130.104379 123.076446 
L 1129.329458 123.076446 
z
" clip-path="url(#pb0875b161d)" style="fill: #00bfff; opacity: 0.85"/>
   </g>
   <g id="patch_244">
    <path d="M 1130.29811 136.889669 
L 1130.49184 136.889669 
L 1130.49184 123.076446 
L 1130.29811 123.076446 
z
" clip-path="url(#pb0875b161d)" style="fill: #00bfff; opacity: 0.85"/>
   </g>
   <g id="patch_245">
    <path d="M 1130.879301 136.889669 
L 1131.073031 136.889669 
L 1131.073031 123.076446 
L 1130.879301 123.076446 
z
" clip-path="url(#pb0875b161d)" style="fill: #00bfff; opacity: 0.85"/>
   </g>
   <g id="patch_246">
    <path d="M 1131.266761 136.889669 
L 1131.654222 136.889669 
L 1131.654222 123.076446 
L 1131.266761 123.076446 
z
" clip-path="url(#pb0875b161d)" style="fill: #00bfff; opacity: 0.85"/>
   </g>
   <g id="patch_247">
    <path d="M 1131.847952 136.889669 
L 1132.235413 136.889669 
L 1132.235413 123.076446 
L 1131.847952 123.076446 
z
" clip-path="url(#pb0875b161d)" style="fill: #00bfff; opacity: 0.85"/>
   </g>
   <g id="patch_248">
    <path d="M 1137.466132 136.889669 
L 1137.853593 136.889669 
L 1137.853593 123.076446 
L 1137.466132 123.076446 
z
" clip-path="url(#pb0875b161d)" style="fill: #00bfff; opacity: 0.85"/>
   </g>
   <g id="patch_249">
    <path d="M 1138.047323 136.889669 
L 1138.628514 136.889669 
L 1138.628514 123.076446 
L 1138.047323 123.076446 
z
" clip-path="url(#pb0875b161d)" style="fill: #00bfff; opacity: 0.85"/>
   </g>
   <g id="patch_250">
    <path d="M 1139.015975 136.889669 
L 1141.340739 136.889669 
L 1141.340739 123.076446 
L 1139.015975 123.076446 
z
" clip-path="url(#pb0875b161d)" style="fill: #00bfff; opacity: 0.85"/>
   </g>
   <g id="patch_251">
    <path d="M 1141.534469 136.889669 
L 1142.11566 136.889669 
L 1142.11566 123.076446 
L 1141.534469 123.076446 
z
" clip-path="url(#pb0875b161d)" style="fill: #00bfff; opacity: 0.85"/>
   </g>
   <g id="patch_252">
    <path d="M 1142.309391 136.889669 
L 1142.503121 136.889669 
L 1142.503121 123.076446 
L 1142.309391 123.076446 
z
" clip-path="url(#pb0875b161d)" style="fill: #00bfff; opacity: 0.85"/>
   </g>
   <g id="patch_253">
    <path d="M 1142.696851 136.889669 
L 1143.471773 136.889669 
L 1143.471773 123.076446 
L 1142.696851 123.076446 
z
" clip-path="url(#pb0875b161d)" style="fill: #00bfff; opacity: 0.85"/>
   </g>
   <g id="patch_254">
    <path d="M 1145.990267 136.889669 
L 1150.833526 136.889669 
L 1150.833526 123.076446 
L 1145.990267 123.076446 
z
" clip-path="url(#pb0875b161d)" style="fill: #00bfff; opacity: 0.85"/>
   </g>
   <g id="patch_255">
    <path d="M 1151.027256 136.889669 
L 1151.220986 136.889669 
L 1151.220986 123.076446 
L 1151.027256 123.076446 
z
" clip-path="url(#pb0875b161d)" style="fill: #00bfff; opacity: 0.85"/>
   </g>
   <g id="patch_256">
    <path d="M 1151.414717 136.889669 
L 1159.551391 136.889669 
L 1159.551391 123.076446 
L 1151.414717 123.076446 
z
" clip-path="url(#pb0875b161d)" style="fill: #00bfff; opacity: 0.85"/>
   </g>
   <g id="patch_257">
    <path d="M 1159.745121 136.889669 
L 1159.938852 136.889669 
L 1159.938852 123.076446 
L 1159.745121 123.076446 
z
" clip-path="url(#pb0875b161d)" style="fill: #00bfff; opacity: 0.85"/>
   </g>
   <g id="patch_258">
    <path d="M 1160.132582 136.889669 
L 1166.525683 136.889669 
L 1166.525683 123.076446 
L 1160.132582 123.076446 
z
" clip-path="url(#pb0875b161d)" style="fill: #00bfff; opacity: 0.85"/>
   </g>
   <g id="patch_259">
    <path d="M 1166.719414 136.889669 
L 1182.217841 136.889669 
L 1182.217841 123.076446 
L 1166.719414 123.076446 
z
" clip-path="url(#pb0875b161d)" style="fill: #00bfff; opacity: 0.85"/>
   </g>
   <g id="patch_260">
    <path d="M 1193.26047 136.889669 
L 1225.807168 136.889669 
L 1225.807168 123.076446 
L 1193.26047 123.076446 
z
" clip-path="url(#pb0875b161d)" style="fill: #00bfff; opacity: 0.85"/>
   </g>
   <g id="patch_261">
    <path d="M 1240.336943 136.889669 
L 1249.054808 136.889669 
L 1249.054808 123.076446 
L 1240.336943 123.076446 
z
" clip-path="url(#pb0875b161d)" style="fill: #00bfff; opacity: 0.85"/>
   </g>
   <g id="patch_262">
    <path d="M 1265.328157 136.889669 
L 1284.12 136.889669 
L 1284.12 123.076446 
L 1265.328157 123.076446 
z
" clip-path="url(#pb0875b161d)" style="fill: #00bfff; opacity: 0.85"/>
   </g>
   <g id="patch_263">
    <path d="M 39.596293 85.090083 
L 63.812585 85.090083 
L 63.812585 71.27686 
L 39.596293 71.27686 
z
" clip-path="url(#pb0875b161d)" style="fill: #ee82ee; opacity: 0.85"/>
   </g>
   <g id="patch_264">
    <path d="M 68.462113 85.090083 
L 88.610069 85.090083 
L 88.610069 71.27686 
L 68.462113 71.27686 
z
" clip-path="url(#pb0875b161d)" style="fill: #ee82ee; opacity: 0.85"/>
   </g>
   <g id="patch_265">
    <path d="M 101.590002 85.090083 
L 150.603778 85.090083 
L 150.603778 71.27686 
L 101.590002 71.27686 
z
" clip-path="url(#pb0875b161d)" style="fill: #ee82ee; opacity: 0.85"/>
   </g>
   <g id="patch_266">
    <path d="M 154.865845 85.090083 
L 155.059576 85.090083 
L 155.059576 71.27686 
L 154.865845 71.27686 
z
" clip-path="url(#pb0875b161d)" style="fill: #ee82ee; opacity: 0.85"/>
   </g>
   <g id="patch_267">
    <path d="M 156.028227 85.090083 
L 156.221958 85.090083 
L 156.221958 71.27686 
L 156.028227 71.27686 
z
" clip-path="url(#pb0875b161d)" style="fill: #ee82ee; opacity: 0.85"/>
   </g>
   <g id="patch_268">
    <path d="M 156.415688 85.090083 
L 156.609418 85.090083 
L 156.609418 71.27686 
L 156.415688 71.27686 
z
" clip-path="url(#pb0875b161d)" style="fill: #ee82ee; opacity: 0.85"/>
   </g>
   <g id="patch_269">
    <path d="M 156.803149 85.090083 
L 156.996879 85.090083 
L 156.996879 71.27686 
L 156.803149 71.27686 
z
" clip-path="url(#pb0875b161d)" style="fill: #ee82ee; opacity: 0.85"/>
   </g>
   <g id="patch_270">
    <path d="M 162.033868 85.090083 
L 162.421328 85.090083 
L 162.421328 71.27686 
L 162.033868 71.27686 
z
" clip-path="url(#pb0875b161d)" style="fill: #ee82ee; opacity: 0.85"/>
   </g>
   <g id="patch_271">
    <path d="M 163.19625 85.090083 
L 163.38998 85.090083 
L 163.38998 71.27686 
L 163.19625 71.27686 
z
" clip-path="url(#pb0875b161d)" style="fill: #ee82ee; opacity: 0.85"/>
   </g>
   <g id="patch_272">
    <path d="M 165.327284 85.090083 
L 165.908475 85.090083 
L 165.908475 71.27686 
L 165.327284 71.27686 
z
" clip-path="url(#pb0875b161d)" style="fill: #ee82ee; opacity: 0.85"/>
   </g>
   <g id="patch_273">
    <path d="M 166.295935 85.090083 
L 166.683396 85.090083 
L 166.683396 71.27686 
L 166.295935 71.27686 
z
" clip-path="url(#pb0875b161d)" style="fill: #ee82ee; opacity: 0.85"/>
   </g>
   <g id="patch_274">
    <path d="M 167.458317 85.090083 
L 169.976812 85.090083 
L 169.976812 71.27686 
L 167.458317 71.27686 
z
" clip-path="url(#pb0875b161d)" style="fill: #ee82ee; opacity: 0.85"/>
   </g>
   <g id="patch_275">
    <path d="M 170.170542 85.090083 
L 170.558003 85.090083 
L 170.558003 71.27686 
L 170.170542 71.27686 
z
" clip-path="url(#pb0875b161d)" style="fill: #ee82ee; opacity: 0.85"/>
   </g>
   <g id="patch_276">
    <path d="M 170.751733 85.090083 
L 171.914115 85.090083 
L 171.914115 71.27686 
L 170.751733 71.27686 
z
" clip-path="url(#pb0875b161d)" style="fill: #ee82ee; opacity: 0.85"/>
   </g>
   <g id="patch_277">
    <path d="M 172.107845 85.090083 
L 173.076497 85.090083 
L 173.076497 71.27686 
L 172.107845 71.27686 
z
" clip-path="url(#pb0875b161d)" style="fill: #ee82ee; opacity: 0.85"/>
   </g>
   <g id="patch_278">
    <path d="M 173.270228 85.090083 
L 176.176183 85.090083 
L 176.176183 71.27686 
L 173.270228 71.27686 
z
" clip-path="url(#pb0875b161d)" style="fill: #ee82ee; opacity: 0.85"/>
   </g>
   <g id="patch_279">
    <path d="M 176.369913 85.090083 
L 181.600632 85.090083 
L 181.600632 71.27686 
L 176.369913 71.27686 
z
" clip-path="url(#pb0875b161d)" style="fill: #ee82ee; opacity: 0.85"/>
   </g>
   <g id="patch_280">
    <path d="M 181.794362 85.090083 
L 182.569284 85.090083 
L 182.569284 71.27686 
L 181.794362 71.27686 
z
" clip-path="url(#pb0875b161d)" style="fill: #ee82ee; opacity: 0.85"/>
   </g>
   <g id="patch_281">
    <path d="M 183.344205 85.090083 
L 183.537936 85.090083 
L 183.537936 71.27686 
L 183.344205 71.27686 
z
" clip-path="url(#pb0875b161d)" style="fill: #ee82ee; opacity: 0.85"/>
   </g>
   <g id="patch_282">
    <path d="M 221.121622 85.090083 
L 236.232588 85.090083 
L 236.232588 71.27686 
L 221.121622 71.27686 
z
" clip-path="url(#pb0875b161d)" style="fill: #ee82ee; opacity: 0.85"/>
   </g>
   <g id="patch_283">
    <path d="M 236.426319 85.090083 
L 236.813779 85.090083 
L 236.813779 71.27686 
L 236.426319 71.27686 
z
" clip-path="url(#pb0875b161d)" style="fill: #ee82ee; opacity: 0.85"/>
   </g>
   <g id="patch_284">
    <path d="M 237.588701 85.090083 
L 237.782431 85.090083 
L 237.782431 71.27686 
L 237.588701 71.27686 
z
" clip-path="url(#pb0875b161d)" style="fill: #ee82ee; opacity: 0.85"/>
   </g>
   <g id="patch_285">
    <path d="M 239.138543 85.090083 
L 267.423173 85.090083 
L 267.423173 71.27686 
L 239.138543 71.27686 
z
" clip-path="url(#pb0875b161d)" style="fill: #ee82ee; opacity: 0.85"/>
   </g>
   <g id="patch_286">
    <path d="M 280.209375 85.090083 
L 281.371758 85.090083 
L 281.371758 71.27686 
L 280.209375 71.27686 
z
" clip-path="url(#pb0875b161d)" style="fill: #ee82ee; opacity: 0.85"/>
   </g>
   <g id="patch_287">
    <path d="M 286.796207 85.090083 
L 316.630679 85.090083 
L 316.630679 71.27686 
L 286.796207 71.27686 
z
" clip-path="url(#pb0875b161d)" style="fill: #ee82ee; opacity: 0.85"/>
   </g>
   <g id="patch_288">
    <path d="M 362.15731 85.090083 
L 365.063265 85.090083 
L 365.063265 71.27686 
L 362.15731 71.27686 
z
" clip-path="url(#pb0875b161d)" style="fill: #ee82ee; opacity: 0.85"/>
   </g>
   <g id="patch_289">
    <path d="M 369.131602 85.090083 
L 370.293984 85.090083 
L 370.293984 71.27686 
L 369.131602 71.27686 
z
" clip-path="url(#pb0875b161d)" style="fill: #ee82ee; opacity: 0.85"/>
   </g>
   <g id="patch_290">
    <path d="M 370.875175 85.090083 
L 373.393669 85.090083 
L 373.393669 71.27686 
L 370.875175 71.27686 
z
" clip-path="url(#pb0875b161d)" style="fill: #ee82ee; opacity: 0.85"/>
   </g>
   <g id="patch_291">
    <path d="M 373.5874 85.090083 
L 375.137242 85.090083 
L 375.137242 71.27686 
L 373.5874 71.27686 
z
" clip-path="url(#pb0875b161d)" style="fill: #ee82ee; opacity: 0.85"/>
   </g>
   <g id="patch_292">
    <path d="M 599.283246 85.090083 
L 602.576662 85.090083 
L 602.576662 71.27686 
L 599.283246 71.27686 
z
" clip-path="url(#pb0875b161d)" style="fill: #ee82ee; opacity: 0.85"/>
   </g>
   <g id="patch_293">
    <path d="M 605.482617 85.090083 
L 611.875718 85.090083 
L 611.875718 71.27686 
L 605.482617 71.27686 
z
" clip-path="url(#pb0875b161d)" style="fill: #ee82ee; opacity: 0.85"/>
   </g>
   <g id="patch_294">
    <path d="M 634.542168 85.090083 
L 641.516461 85.090083 
L 641.516461 71.27686 
L 634.542168 71.27686 
z
" clip-path="url(#pb0875b161d)" style="fill: #ee82ee; opacity: 0.85"/>
   </g>
   <g id="patch_295">
    <path d="M 641.710191 85.090083 
L 641.903921 85.090083 
L 641.903921 71.27686 
L 641.710191 71.27686 
z
" clip-path="url(#pb0875b161d)" style="fill: #ee82ee; opacity: 0.85"/>
   </g>
   <g id="patch_296">
    <path d="M 642.097652 85.090083 
L 642.291382 85.090083 
L 642.291382 71.27686 
L 642.097652 71.27686 
z
" clip-path="url(#pb0875b161d)" style="fill: #ee82ee; opacity: 0.85"/>
   </g>
   <g id="patch_297">
    <path d="M 823.816711 85.090083 
L 834.278149 85.090083 
L 834.278149 71.27686 
L 823.816711 71.27686 
z
" clip-path="url(#pb0875b161d)" style="fill: #ee82ee; opacity: 0.85"/>
   </g>
   <g id="patch_298">
    <path d="M 869.924532 85.090083 
L 882.710734 85.090083 
L 882.710734 71.27686 
L 869.924532 71.27686 
z
" clip-path="url(#pb0875b161d)" style="fill: #ee82ee; opacity: 0.85"/>
   </g>
   <g id="patch_299">
    <path d="M 908.86433 85.090083 
L 911.382825 85.090083 
L 911.382825 71.27686 
L 908.86433 71.27686 
z
" clip-path="url(#pb0875b161d)" style="fill: #ee82ee; opacity: 0.85"/>
   </g>
   <g id="patch_300">
    <path d="M 963.108826 85.090083 
L 970.858039 85.090083 
L 970.858039 71.27686 
L 963.108826 71.27686 
z
" clip-path="url(#pb0875b161d)" style="fill: #ee82ee; opacity: 0.85"/>
   </g>
   <g id="patch_301">
    <path d="M 1063.073681 85.090083 
L 1072.372738 85.090083 
L 1072.372738 71.27686 
L 1063.073681 71.27686 
z
" clip-path="url(#pb0875b161d)" style="fill: #ee82ee; opacity: 0.85"/>
   </g>
   <g id="patch_302">
    <path d="M 1086.127592 85.090083 
L 1098.332603 85.090083 
L 1098.332603 71.27686 
L 1086.127592 71.27686 
z
" clip-path="url(#pb0875b161d)" style="fill: #ee82ee; opacity: 0.85"/>
   </g>
   <g id="patch_303">
    <path d="M 1232.200269 85.090083 
L 1240.336943 85.090083 
L 1240.336943 71.27686 
L 1232.200269 71.27686 
z
" clip-path="url(#pb0875b161d)" style="fill: #ee82ee; opacity: 0.85"/>
   </g>
   <g id="patch_304">
    <path d="M 375.137242 33.290496 
L 385.598681 33.290496 
L 385.598681 19.477273 
L 375.137242 19.477273 
z
" clip-path="url(#pb0875b161d)" style="fill: #32cd32; opacity: 0.85"/>
   </g>
   <g id="patch_305">
    <path d="M 406.134097 33.290496 
L 407.87767 33.290496 
L 407.87767 19.477273 
L 406.134097 19.477273 
z
" clip-path="url(#pb0875b161d)" style="fill: #32cd32; opacity: 0.85"/>
   </g>
   <g id="patch_306">
    <path d="M 408.0714 33.290496 
L 408.458861 33.290496 
L 408.458861 19.477273 
L 408.0714 19.477273 
z
" clip-path="url(#pb0875b161d)" style="fill: #32cd32; opacity: 0.85"/>
   </g>
   <g id="patch_307">
    <path d="M 409.814973 33.290496 
L 410.202434 33.290496 
L 410.202434 19.477273 
L 409.814973 19.477273 
z
" clip-path="url(#pb0875b161d)" style="fill: #32cd32; opacity: 0.85"/>
   </g>
   <g id="patch_308">
    <path d="M 410.589895 33.290496 
L 410.783625 33.290496 
L 410.783625 19.477273 
L 410.589895 19.477273 
z
" clip-path="url(#pb0875b161d)" style="fill: #32cd32; opacity: 0.85"/>
   </g>
   <g id="patch_309">
    <path d="M 410.977355 33.290496 
L 411.171086 33.290496 
L 411.171086 19.477273 
L 410.977355 19.477273 
z
" clip-path="url(#pb0875b161d)" style="fill: #32cd32; opacity: 0.85"/>
   </g>
   <g id="patch_310">
    <path d="M 411.364816 33.290496 
L 411.752277 33.290496 
L 411.752277 19.477273 
L 411.364816 19.477273 
z
" clip-path="url(#pb0875b161d)" style="fill: #32cd32; opacity: 0.85"/>
   </g>
   <g id="patch_311">
    <path d="M 412.720928 33.290496 
L 413.302119 33.290496 
L 413.302119 19.477273 
L 412.720928 19.477273 
z
" clip-path="url(#pb0875b161d)" style="fill: #32cd32; opacity: 0.85"/>
   </g>
   <g id="patch_312">
    <path d="M 413.68958 33.290496 
L 413.88331 33.290496 
L 413.88331 19.477273 
L 413.68958 19.477273 
z
" clip-path="url(#pb0875b161d)" style="fill: #32cd32; opacity: 0.85"/>
   </g>
   <g id="patch_313">
    <path d="M 414.077041 33.290496 
L 414.464501 33.290496 
L 414.464501 19.477273 
L 414.077041 19.477273 
z
" clip-path="url(#pb0875b161d)" style="fill: #32cd32; opacity: 0.85"/>
   </g>
   <g id="patch_314">
    <path d="M 416.208075 33.290496 
L 416.595535 33.290496 
L 416.595535 19.477273 
L 416.208075 19.477273 
z
" clip-path="url(#pb0875b161d)" style="fill: #32cd32; opacity: 0.85"/>
   </g>
   <g id="patch_315">
    <path d="M 417.176726 33.290496 
L 417.370457 33.290496 
L 417.370457 19.477273 
L 417.176726 19.477273 
z
" clip-path="url(#pb0875b161d)" style="fill: #32cd32; opacity: 0.85"/>
   </g>
   <g id="patch_316">
    <path d="M 419.888951 33.290496 
L 423.376097 33.290496 
L 423.376097 19.477273 
L 419.888951 19.477273 
z
" clip-path="url(#pb0875b161d)" style="fill: #32cd32; opacity: 0.85"/>
   </g>
   <g id="patch_317">
    <path d="M 424.151018 33.290496 
L 424.538479 33.290496 
L 424.538479 19.477273 
L 424.151018 19.477273 
z
" clip-path="url(#pb0875b161d)" style="fill: #32cd32; opacity: 0.85"/>
   </g>
   <g id="patch_318">
    <path d="M 424.92594 33.290496 
L 425.507131 33.290496 
L 425.507131 19.477273 
L 424.92594 19.477273 
z
" clip-path="url(#pb0875b161d)" style="fill: #32cd32; opacity: 0.85"/>
   </g>
   <g id="patch_319">
    <path d="M 425.894592 33.290496 
L 426.475783 33.290496 
L 426.475783 19.477273 
L 425.894592 19.477273 
z
" clip-path="url(#pb0875b161d)" style="fill: #32cd32; opacity: 0.85"/>
   </g>
   <g id="patch_320">
    <path d="M 426.669513 33.290496 
L 427.056974 33.290496 
L 427.056974 19.477273 
L 426.669513 19.477273 
z
" clip-path="url(#pb0875b161d)" style="fill: #32cd32; opacity: 0.85"/>
   </g>
   <g id="patch_321">
    <path d="M 427.444434 33.290496 
L 428.606816 33.290496 
L 428.606816 19.477273 
L 427.444434 19.477273 
z
" clip-path="url(#pb0875b161d)" style="fill: #32cd32; opacity: 0.85"/>
   </g>
   <g id="patch_322">
    <path d="M 428.800547 33.290496 
L 428.994277 33.290496 
L 428.994277 19.477273 
L 428.800547 19.477273 
z
" clip-path="url(#pb0875b161d)" style="fill: #32cd32; opacity: 0.85"/>
   </g>
   <g id="patch_323">
    <path d="M 451.466996 33.290496 
L 457.472637 33.290496 
L 457.472637 19.477273 
L 451.466996 19.477273 
z
" clip-path="url(#pb0875b161d)" style="fill: #32cd32; opacity: 0.85"/>
   </g>
   <g id="patch_324">
    <path d="M 471.033761 33.290496 
L 476.651941 33.290496 
L 476.651941 19.477273 
L 471.033761 19.477273 
z
" clip-path="url(#pb0875b161d)" style="fill: #32cd32; opacity: 0.85"/>
   </g>
   <g id="patch_325">
    <path d="M 481.88266 33.290496 
L 484.982345 33.290496 
L 484.982345 19.477273 
L 481.88266 19.477273 
z
" clip-path="url(#pb0875b161d)" style="fill: #32cd32; opacity: 0.85"/>
   </g>
   <g id="patch_326">
    <path d="M 485.563536 33.290496 
L 485.757267 33.290496 
L 485.757267 19.477273 
L 485.563536 19.477273 
z
" clip-path="url(#pb0875b161d)" style="fill: #32cd32; opacity: 0.85"/>
   </g>
   <g id="patch_327">
    <path d="M 486.144727 33.290496 
L 486.338458 33.290496 
L 486.338458 19.477273 
L 486.144727 19.477273 
z
" clip-path="url(#pb0875b161d)" style="fill: #32cd32; opacity: 0.85"/>
   </g>
   <g id="patch_328">
    <path d="M 486.532188 33.290496 
L 487.50084 33.290496 
L 487.50084 19.477273 
L 486.532188 19.477273 
z
" clip-path="url(#pb0875b161d)" style="fill: #32cd32; opacity: 0.85"/>
   </g>
   <g id="patch_329">
    <path d="M 488.082031 33.290496 
L 488.469492 33.290496 
L 488.469492 19.477273 
L 488.082031 19.477273 
z
" clip-path="url(#pb0875b161d)" style="fill: #32cd32; opacity: 0.85"/>
   </g>
   <g id="patch_330">
    <path d="M 488.663222 33.290496 
L 489.631874 33.290496 
L 489.631874 19.477273 
L 488.663222 19.477273 
z
" clip-path="url(#pb0875b161d)" style="fill: #32cd32; opacity: 0.85"/>
   </g>
   <g id="patch_331">
    <path d="M 489.825604 33.290496 
L 490.213065 33.290496 
L 490.213065 19.477273 
L 489.825604 19.477273 
z
" clip-path="url(#pb0875b161d)" style="fill: #32cd32; opacity: 0.85"/>
   </g>
   <g id="patch_332">
    <path d="M 490.406795 33.290496 
L 490.600525 33.290496 
L 490.600525 19.477273 
L 490.406795 19.477273 
z
" clip-path="url(#pb0875b161d)" style="fill: #32cd32; opacity: 0.85"/>
   </g>
   <g id="patch_333">
    <path d="M 492.537829 33.290496 
L 492.731559 33.290496 
L 492.731559 19.477273 
L 492.537829 19.477273 
z
" clip-path="url(#pb0875b161d)" style="fill: #32cd32; opacity: 0.85"/>
   </g>
   <g id="patch_334">
    <path d="M 492.925289 33.290496 
L 493.31275 33.290496 
L 493.31275 19.477273 
L 492.925289 19.477273 
z
" clip-path="url(#pb0875b161d)" style="fill: #32cd32; opacity: 0.85"/>
   </g>
   <g id="patch_335">
    <path d="M 558.018684 33.290496 
L 563.055673 33.290496 
L 563.055673 19.477273 
L 558.018684 19.477273 
z
" clip-path="url(#pb0875b161d)" style="fill: #32cd32; opacity: 0.85"/>
   </g>
   <g id="patch_336">
    <path d="M 586.497044 33.290496 
L 591.534033 33.290496 
L 591.534033 19.477273 
L 586.497044 19.477273 
z
" clip-path="url(#pb0875b161d)" style="fill: #32cd32; opacity: 0.85"/>
   </g>
   <g id="patch_337">
    <path d="M 627.567876 33.290496 
L 634.542168 33.290496 
L 634.542168 19.477273 
L 627.567876 19.477273 
z
" clip-path="url(#pb0875b161d)" style="fill: #32cd32; opacity: 0.85"/>
   </g>
   <g id="patch_338">
    <path d="M 688.399203 33.290496 
L 699.248102 33.290496 
L 699.248102 19.477273 
L 688.399203 19.477273 
z
" clip-path="url(#pb0875b161d)" style="fill: #32cd32; opacity: 0.85"/>
   </g>
   <g id="patch_339">
    <path d="M 725.982889 33.290496 
L 743.41862 33.290496 
L 743.41862 19.477273 
L 725.982889 19.477273 
z
" clip-path="url(#pb0875b161d)" style="fill: #32cd32; opacity: 0.85"/>
   </g>
   <g id="patch_340">
    <path d="M 772.865631 33.290496 
L 787.201677 33.290496 
L 787.201677 19.477273 
L 772.865631 19.477273 
z
" clip-path="url(#pb0875b161d)" style="fill: #32cd32; opacity: 0.85"/>
   </g>
   <g id="patch_341">
    <path d="M 787.395407 33.290496 
L 787.589137 33.290496 
L 787.589137 19.477273 
L 787.395407 19.477273 
z
" clip-path="url(#pb0875b161d)" style="fill: #32cd32; opacity: 0.85"/>
   </g>
   <g id="patch_342">
    <path d="M 865.468734 33.290496 
L 869.537071 33.290496 
L 869.537071 19.477273 
L 865.468734 19.477273 
z
" clip-path="url(#pb0875b161d)" style="fill: #32cd32; opacity: 0.85"/>
   </g>
   <g id="patch_343">
    <path d="M 897.627971 33.290496 
L 902.471229 33.290496 
L 902.471229 19.477273 
L 897.627971 19.477273 
z
" clip-path="url(#pb0875b161d)" style="fill: #32cd32; opacity: 0.85"/>
   </g>
   <g id="patch_344">
    <path d="M 914.09505 33.290496 
L 924.750218 33.290496 
L 924.750218 19.477273 
L 914.09505 19.477273 
z
" clip-path="url(#pb0875b161d)" style="fill: #32cd32; opacity: 0.85"/>
   </g>
   <g id="patch_345">
    <path d="M 974.732646 33.290496 
L 982.67559 33.290496 
L 982.67559 19.477273 
L 974.732646 19.477273 
z
" clip-path="url(#pb0875b161d)" style="fill: #32cd32; opacity: 0.85"/>
   </g>
   <g id="patch_346">
    <path d="M 1098.332603 33.290496 
L 1111.312536 33.290496 
L 1111.312536 19.477273 
L 1098.332603 19.477273 
z
" clip-path="url(#pb0875b161d)" style="fill: #32cd32; opacity: 0.85"/>
   </g>
   <g id="patch_347">
    <path d="M 1182.217841 33.290496 
L 1193.26047 33.290496 
L 1193.26047 19.477273 
L 1182.217841 19.477273 
z
" clip-path="url(#pb0875b161d)" style="fill: #32cd32; opacity: 0.85"/>
   </g>
   <g id="patch_348">
    <path d="M 1225.807168 33.290496 
L 1232.200269 33.290496 
L 1232.200269 19.477273 
L 1225.807168 19.477273 
z
" clip-path="url(#pb0875b161d)" style="fill: #32cd32; opacity: 0.85"/>
   </g>
   <g id="patch_349">
    <path d="M 1249.054808 33.290496 
L 1261.45355 33.290496 
L 1261.45355 19.477273 
L 1249.054808 19.477273 
z
" clip-path="url(#pb0875b161d)" style="fill: #32cd32; opacity: 0.85"/>
   </g>
   <g id="patch_350">
    <path d="M 15.38 179.02 
L 15.38 11.88 
" style="fill: none; stroke: #000000; stroke-width: 0.8; stroke-linejoin: miter; stroke-linecap: square"/>
   </g>
   <g id="patch_351">
    <path d="M 1284.12 179.02 
L 1284.12 11.88 
" style="fill: none; stroke: #000000; stroke-width: 0.8; stroke-linejoin: miter; stroke-linecap: square"/>
   </g>
   <g id="patch_352">
    <path d="M 15.38 179.02 
L 1284.12 179.02 
" style="fill: none; stroke: #000000; stroke-width: 0.8; stroke-linejoin: miter; stroke-linecap: square"/>
   </g>
   <g id="patch_353">
    <path d="M 15.38 11.88 
L 1284.12 11.88 
" style="fill: none; stroke: #000000; stroke-width: 0.8; stroke-linejoin: miter; stroke-linecap: square"/>
   </g>
  </g>
 </g>
 <defs>
  <clipPath id="pb0875b161d">
   <rect x="15.38" y="11.88" width="1268.74" height="167.14"/>
  </clipPath>
 </defs>
</svg>
